#
#
#

mtllib shroomba.mtl


#
#  Mesh
#
g  Mesh

v 0.000000 1.000000 0.192712
v 0.361242 0.932472 -0.192712
v 0.000000 1.000000 -0.192712
v 0.361242 0.932472 0.192712
v 0.673696 0.739009 -0.192712
v 0.673696 0.739009 0.192712
v 0.895163 0.445738 -0.192712
v 0.895163 0.445738 0.192712
v 0.995734 0.092268 -0.192712
v 0.995734 0.092268 0.192712
v 0.961826 -0.273663 -0.192712
v 0.961826 -0.273663 0.192712
v 0.798017 -0.602635 -0.192712
v 0.798017 -0.602635 0.192712
v 0.526432 -0.850217 -0.192712
v 0.526432 -0.850217 0.192712
v 0.183750 -0.982973 -0.192712
v 0.183750 -0.982973 0.192712
v -0.183749 -0.982973 -0.192712
v -0.183749 -0.982973 0.192712
v -0.526432 -0.850217 -0.192712
v -0.526432 -0.850217 0.192712
v -0.798017 -0.602635 -0.192712
v -0.798017 -0.602635 0.192712
v -0.961826 -0.273663 -0.192712
v -0.961826 -0.273663 0.192712
v -0.995734 0.092269 -0.192712
v -0.995734 0.092269 0.192712
v -0.895163 0.445739 -0.192712
v -0.895163 0.445739 0.192712
v -0.673695 0.739009 -0.192712
v -0.673695 0.739009 0.192712
v -0.361241 0.932473 -0.192712
v -0.361241 0.932473 0.192712
v -0.366882 -0.460970 0.510306
v -0.356889 -0.462838 0.186657
v -0.366882 -0.460970 0.186657
v -0.356889 -0.462838 0.510306
v -0.348246 -0.468189 0.186657
v -0.348246 -0.468189 0.510306
v -0.342120 -0.476302 0.186657
v -0.342120 -0.476302 0.510306
v -0.339338 -0.486079 0.186657
v -0.339338 -0.486079 0.510306
v -0.340276 -0.496202 0.186657
v -0.340276 -0.496202 0.510306
v -0.344807 -0.505302 0.186657
v -0.344807 -0.505302 0.510306
v -0.352320 -0.512150 0.186657
v -0.352320 -0.512150 0.510306
v -0.361799 -0.515823 0.186657
v -0.361799 -0.515823 0.510306
v -0.371965 -0.515823 0.186657
v -0.371965 -0.515823 0.510306
v -0.381444 -0.512150 0.186657
v -0.381444 -0.512150 0.510306
v -0.388957 -0.505302 0.186657
v -0.388957 -0.505302 0.510306
v -0.393488 -0.496202 0.186657
v -0.393488 -0.496202 0.510306
v -0.394426 -0.486079 0.186657
v -0.394426 -0.486079 0.510306
v -0.391644 -0.476302 0.186657
v -0.391644 -0.476302 0.510306
v -0.385518 -0.468189 0.186657
v -0.261770 -0.436292 0.518751
v -0.385518 -0.468189 0.510306
v -0.376875 -0.462838 0.186657
v -0.376875 -0.462838 0.510306
v -0.263124 -0.479017 0.555743
v -0.304235 -0.457437 0.592734
v -0.297196 -0.482174 0.592734
v -0.345306 -0.604054 0.518751
v -0.324464 -0.379139 0.518751
v -0.483803 -0.477797 0.518751
v -0.253943 -0.520766 0.518751
v -0.273178 -0.559394 0.518751
v -0.460587 -0.559394 0.518751
v -0.409300 -0.379139 0.518751
v -0.249961 -0.477797 0.518751
v -0.388458 -0.604054 0.518751
v -0.471994 -0.436292 0.518751
v -0.287776 -0.401856 0.518751
v -0.305068 -0.588466 0.518751
v -0.479821 -0.520766 0.518751
v -0.366882 -0.371210 0.518751
v -0.428697 -0.588466 0.518751
v -0.445989 -0.401856 0.518751
v -0.379742 -0.557425 0.592734
v -0.384044 -0.516350 0.611539
v -0.403724 -0.548134 0.592734
v -0.450037 -0.551428 0.555743
v -0.434195 -0.507784 0.592734
v -0.467107 -0.517148 0.555743
v -0.299569 -0.507784 0.592734
v -0.266658 -0.517148 0.555743
v -0.436568 -0.482174 0.592734
v -0.470640 -0.479017 0.555743
v -0.311033 -0.530807 0.592734
v -0.283727 -0.551428 0.555743
v -0.429530 -0.457437 0.592734
v -0.460160 -0.442185 0.555743
v -0.330040 -0.548134 0.592734
v -0.312027 -0.577226 0.555743
v -0.414030 -0.436912 0.592734
v -0.437083 -0.411625 0.555743
v -0.347735 -0.591060 0.555743
v -0.354022 -0.557425 0.592734
v -0.329240 -0.391466 0.555743
v -0.366882 -0.418647 0.592734
v -0.341601 -0.423373 0.592734
v -0.392163 -0.423373 0.592734
v -0.404524 -0.391466 0.555743
v -0.386029 -0.591060 0.555743
v -0.319734 -0.436912 0.592734
v -0.296681 -0.411625 0.555743
v -0.366882 -0.384429 0.555743
v -0.421738 -0.577226 0.555743
v -0.273604 -0.442185 0.555743
v -0.422731 -0.530807 0.592734
v -0.366882 -0.456031 0.611539
v -0.372873 -0.520678 0.611539
v -0.335526 -0.497553 0.611539
v -0.344919 -0.464539 0.611539
v -0.337699 -0.474100 0.611539
v -0.392898 -0.508278 0.611539
v -0.334420 -0.485624 0.611539
v -0.398239 -0.497553 0.611539
v -0.399344 -0.485624 0.611539
v -0.340866 -0.508278 0.611539
v -0.396065 -0.474100 0.611539
v -0.349720 -0.516350 0.611539
v -0.388845 -0.464539 0.611539
v -0.360892 -0.520678 0.611539
v -0.355105 -0.458232 0.611539
v -0.378659 -0.458232 0.611539
vn 0.183697 0.982983 0.000000
vn 0.526417 0.850227 0.000000
vn 0.798028 0.602621 0.000000
vn 0.961814 0.273704 0.000000
vn 0.995731 -0.092303 -0.000000
vn 0.895186 -0.445693 -0.000000
vn 0.673702 -0.739003 -0.000000
vn 0.361196 -0.932490 -0.000000
vn 0.000000 -1.000000 -0.000000
vn -0.361196 -0.932490 -0.000000
vn -0.673702 -0.739003 -0.000000
vn -0.895186 -0.445693 -0.000000
vn -0.995731 -0.092303 -0.000000
vn -0.961814 0.273704 0.000000
vn -0.798028 0.602621 0.000000
vn 0.000000 -0.000000 1.000000
vn -0.526417 0.850227 0.000000
vn -0.183697 0.982983 0.000000
vn 0.000000 0.000000 -1.000000
vn 0.183793 0.982965 0.000000
vn 0.075997 0.057397 -0.995455
vn 0.711633 0.202509 0.672732
vn 0.034398 -0.088796 -0.995456
vn 0.017499 0.093695 -0.995447
vn -0.094895 -0.008799 -0.995448
vn 0.085296 -0.042498 -0.995449
vn -0.064197 -0.070397 -0.995451
vn -0.050197 0.080996 -0.995450
vn 0.091596 0.026099 -0.995454
vn 0.000000 -0.095295 -0.995449
vn -0.091596 0.026099 -0.995454
vn 0.050197 0.080996 -0.995450
vn 0.064197 -0.070397 -0.995451
vn -0.085296 -0.042498 -0.995449
vn -0.017499 0.093695 -0.995447
vn 0.094895 -0.008799 -0.995448
vn -0.034398 -0.088796 -0.995456
vn -0.075997 0.057397 -0.995455
vn -0.164600 -0.424799 0.890198
vn -0.662322 -0.329811 0.672722
vn 0.736731 -0.068303 0.672728
vn -0.736731 -0.068303 0.672728
vn 0.662322 -0.329811 0.672722
vn -0.711633 0.202509 0.672732
vn 0.498420 -0.546822 0.672728
vn -0.590422 0.445917 0.672725
vn 0.267308 -0.689922 0.672721
vn 0.136001 0.727305 0.672705
vn -0.389500 0.629099 0.672699
vn 0.000000 -0.739908 0.672708
vn 0.389500 0.629099 0.672699
vn -0.136001 0.727305 0.672705
vn -0.267308 -0.689922 0.672721
vn 0.590422 0.445917 0.672725
vn -0.498420 -0.546822 0.672728
vn -0.635631 -0.697235 0.331416
vn 0.752904 0.568603 0.331402
vn -0.340797 -0.879792 0.331397
vn -0.173403 0.927417 0.331406
vn 0.496685 0.802175 0.331390
vn 0.000000 -0.943491 0.331397
vn -0.496685 0.802175 0.331390
vn 0.173403 0.927417 0.331406
vn 0.340797 -0.879792 0.331397
vn -0.752904 0.568603 0.331402
vn 0.635631 -0.697235 0.331416
vn -0.907478 0.258194 0.331392
vn 0.844602 -0.420501 0.331401
vn -0.939466 -0.087097 0.331388
vn 0.939466 -0.087097 0.331388
vn -0.844602 -0.420501 0.331401
vn 0.907478 0.258194 0.331392
vn 0.363511 0.274508 0.890227
vn -0.306898 -0.336698 0.890195
vn 0.438194 0.124698 0.890189
vn -0.407799 -0.203099 0.890197
vn 0.453606 -0.042001 0.890212
vn -0.453606 -0.042001 0.890212
vn 0.407799 -0.203099 0.890197
vn -0.438194 0.124698 0.890189
vn 0.306898 -0.336698 0.890195
vn -0.363511 0.274508 0.890227
vn 0.164600 -0.424799 0.890198
vn 0.083701 0.447803 0.890206
vn -0.239805 0.387307 0.890217
vn 0.000000 -0.455594 0.890188
vn 0.239805 0.387307 0.890217
vn -0.083701 0.447803 0.890206
vn -0.183793 0.982965 0.000000
vn 0.064203 -0.070404 -0.995450
vn 0.498496 -0.546795 0.672694
vn -0.498496 -0.546795 0.672694
vt 0.030459 0.515042
vt 0.059072 0.671819
vt 0.030459 0.671819
vt 0.059072 0.515042
vt 0.087685 0.671819
vt 0.087685 0.515042
vt 0.116299 0.671819
vt 0.116299 0.515042
vt 0.144912 0.671819
vt 0.144912 0.515042
vt 0.173525 0.671819
vt 0.173525 0.515042
vt 0.202138 0.671819
vt 0.202138 0.515042
vt 0.230751 0.671819
vt 0.230751 0.515042
vt 0.259365 0.671819
vt 0.259365 0.515042
vt 0.287978 0.671819
vt 0.287978 0.515042
vt 0.316591 0.671819
vt 0.316591 0.515042
vt 0.345205 0.671819
vt 0.345205 0.515042
vt 0.373818 0.671819
vt 0.373818 0.515042
vt 0.402431 0.671819
vt 0.402431 0.515042
vt 0.431044 0.671819
vt 0.431044 0.515042
vt 0.459657 0.671819
vt 0.376344 0.045948
vt 0.480838 0.184321
vt 0.250000 0.490000
vt 0.459657 0.515042
vt 0.488271 0.671819
vt 0.488271 0.515042
vt 0.516884 0.671819
vt 0.836698 0.473793
vt 0.980838 0.184321
vt 0.705900 0.014086
vt 0.411687 0.427362
vt 0.336698 0.473793
vt 0.163302 0.473793
vt 0.088313 0.427362
vt 0.035161 0.356977
vt 0.011024 0.272144
vt 0.019162 0.184321
vt 0.058476 0.105368
vt 0.123656 0.045948
vt 0.205900 0.014086
vt 0.294100 0.014086
vt 0.441524 0.105368
vt 0.488976 0.272144
vt 0.464839 0.356977
vt 0.663302 0.473793
vt 0.750000 0.490000
vt 0.588313 0.427362
vt 0.911687 0.427362
vt 0.964839 0.356977
vt 0.988976 0.272144
vt 0.941524 0.105368
vt 0.876344 0.045948
vt 0.794100 0.014086
vt 0.623656 0.045948
vt 0.558476 0.105368
vt 0.519162 0.184321
vt 0.511024 0.272144
vt 0.535161 0.356977
vt 0.516884 0.515042
vt 0.628928 0.764314
vt 0.593342 0.712857
vt 0.628928 0.712857
vt 0.593342 0.764314
vt 0.557754 0.712857
vt 0.557754 0.764314
vt 0.522168 0.712857
vt 0.522168 0.764314
vt 0.486581 0.712857
vt 0.486581 0.764314
vt 0.450994 0.712857
vt 0.450994 0.764314
vt 0.415407 0.712857
vt 0.415407 0.764314
vt 0.379820 0.712857
vt 0.379820 0.764314
vt 0.344233 0.712857
vt 0.344233 0.764314
vt 0.308646 0.712857
vt 0.308646 0.764314
vt 0.273059 0.712857
vt 0.273059 0.764314
vt 0.237472 0.712857
vt 0.237472 0.764314
vt 0.201885 0.712857
vt 0.201885 0.764314
vt 0.166298 0.712857
vt 0.166298 0.764314
vt 0.130711 0.712857
vt 0.130711 0.764314
vt 0.095125 0.712857
vt 0.522168 0.814981
vt 0.095125 0.764314
vt 0.059538 0.712857
vt 0.059538 0.764314
vt 0.023951 0.712857
vt 0.486581 0.871800
vt 0.522168 0.921366
vt 0.486581 0.921366
vt 0.344233 0.814981
vt 0.593342 0.814981
vt 0.166298 0.814981
vt 0.450994 0.814981
vt 0.415407 0.814981
vt 0.237472 0.814981
vt 0.059538 0.814981
vt 0.486581 0.814981
vt 0.308646 0.814981
vt 0.130711 0.814981
vt 0.557754 0.814981
vt 0.379820 0.814981
vt 0.201885 0.814981
vt 0.023951 0.814981
vt 0.023951 0.764314
vt 0.273059 0.814981
vt 0.095125 0.814981
vt 0.308646 0.921366
vt 0.273059 0.973356
vt 0.273059 0.921366
vt 0.237472 0.871800
vt 0.201885 0.921366
vt 0.201885 0.871800
vt 0.450994 0.921366
vt 0.450994 0.871800
vt 0.166298 0.921366
vt 0.166298 0.871800
vt 0.415407 0.921366
vt 0.415407 0.871800
vt 0.130711 0.921366
vt 0.130711 0.871800
vt 0.379820 0.921366
vt 0.379820 0.871800
vt 0.095125 0.921366
vt 0.095125 0.871800
vt 0.344233 0.871800
vt 0.344233 0.921366
vt 0.593342 0.871800
vt 0.628928 0.921366
vt 0.593342 0.921366
vt 0.059538 0.921366
vt 0.059538 0.871800
vt 0.308646 0.871800
vt 0.557754 0.921366
vt 0.557754 0.871800
vt 0.023951 0.921366
vt 0.023951 0.871800
vt 0.273059 0.871800
vt 0.522168 0.871800
vt 0.237472 0.921366
vt 0.628928 0.814981
vt 0.823177 0.970080
vt 0.796498 0.682163
vt 0.962829 0.785151
vt 0.557754 0.973356
vt 0.522168 0.973356
vt 0.237472 0.973356
vt 0.486581 0.973356
vt 0.201885 0.973356
vt 0.450994 0.973356
vt 0.166298 0.973356
vt 0.415407 0.973356
vt 0.130711 0.973356
vt 0.379820 0.973356
vt 0.095125 0.973356
vt 0.344233 0.973356
vt 0.628928 0.973356
vt 0.593342 0.973356
vt 0.059538 0.973356
vt 0.308646 0.973356
vt 0.023951 0.973356
vt 0.920994 0.932186
vt 0.875628 0.960275
vt 0.770727 0.960275
vt 0.725360 0.932186
vt 0.693204 0.889604
vt 0.678602 0.838283
vt 0.683525 0.785151
vt 0.707310 0.737386
vt 0.746742 0.701439
vt 0.849857 0.682163
vt 0.899612 0.701439
vt 0.939045 0.737386
vt 0.967752 0.838283
vt 0.953150 0.889604
vt 0.628928 0.871800
f 1/1/1 2/2/1 3/3/1
f 4/4/2 5/5/2 2/2/2
f 6/6/3 7/7/3 5/5/3
f 8/8/4 9/9/4 7/7/4
f 10/10/5 11/11/5 9/9/5
f 12/12/6 13/13/6 11/11/6
f 14/14/7 15/15/7 13/13/7
f 16/16/8 17/17/8 15/15/8
f 18/18/9 19/19/9 17/17/9
f 20/20/10 21/21/10 19/19/10
f 22/22/11 23/23/11 21/21/11
f 24/24/12 25/25/12 23/23/12
f 26/26/13 27/27/13 25/25/13
f 28/28/14 29/29/14 27/27/14
f 30/30/15 31/31/15 29/29/15
f 16/32/16 12/33/16 1/34/16
f 32/35/17 33/36/17 31/31/17
f 34/37/18 3/38/18 33/36/18
f 2/39/19 11/40/19 19/41/19
f 6/42/16 4/43/16 1/34/16
f 1/34/16 34/44/16 32/45/16
f 32/45/16 30/46/16 28/47/16
f 28/47/16 26/48/16 24/49/16
f 24/49/16 22/50/16 20/51/16
f 20/51/16 18/52/16 16/32/16
f 16/32/16 14/53/16 12/33/16
f 12/33/16 10/54/16 1/34/16
f 10/54/16 8/55/16 1/34/16
f 8/55/16 6/42/16 1/34/16
f 1/34/16 32/45/16 28/47/16
f 28/47/16 24/49/16 1/34/16
f 24/49/16 20/51/16 1/34/16
f 20/51/16 16/32/16 1/34/16
f 33/56/19 3/57/19 31/58/19
f 3/57/19 2/39/19 31/58/19
f 2/39/19 5/59/19 11/40/19
f 5/59/19 7/60/19 11/40/19
f 7/60/19 9/61/19 11/40/19
f 11/40/19 13/62/19 15/63/19
f 15/63/19 17/64/19 19/41/19
f 19/41/19 21/65/19 23/66/19
f 23/66/19 25/67/19 19/41/19
f 25/67/19 27/68/19 19/41/19
f 27/68/19 29/69/19 31/58/19
f 11/40/19 15/63/19 19/41/19
f 27/68/19 31/58/19 19/41/19
f 31/58/19 2/39/19 19/41/19
f 1/1/1 4/4/1 2/2/1
f 4/4/2 6/6/2 5/5/2
f 6/6/3 8/8/3 7/7/3
f 8/8/4 10/10/4 9/9/4
f 10/10/5 12/12/5 11/11/5
f 12/12/6 14/14/6 13/13/6
f 14/14/7 16/16/7 15/15/7
f 16/16/8 18/18/8 17/17/8
f 18/18/9 20/20/9 19/19/9
f 20/20/10 22/22/10 21/21/10
f 22/22/11 24/24/11 23/23/11
f 24/24/12 26/26/12 25/25/12
f 26/26/13 28/28/13 27/27/13
f 28/28/14 30/30/14 29/29/14
f 30/30/15 32/35/15 31/31/15
f 32/35/17 34/37/17 33/36/17
f 34/37/18 1/70/18 3/38/18
f 35/71/20 36/72/20 37/73/20
f 38/74/2 39/75/2 36/72/2
f 40/76/3 41/77/3 39/75/3
f 42/78/4 43/79/4 41/77/4
f 44/80/5 45/81/5 43/79/5
f 46/82/6 47/83/6 45/81/6
f 48/84/7 49/85/7 47/83/7
f 50/86/8 51/87/8 49/85/8
f 52/88/9 53/89/9 51/87/9
f 54/90/10 55/91/10 53/89/10
f 56/92/11 57/93/11 55/91/11
f 58/94/12 59/95/12 57/93/12
f 60/96/13 61/97/13 59/95/13
f 62/98/14 63/99/14 61/97/14
f 64/100/15 65/101/15 63/99/15
f 40/76/21 66/102/21 42/78/21
f 67/103/17 68/104/17 65/101/17
f 69/105/18 37/106/18 68/104/18
f 70/107/22 71/108/22 72/109/22
f 50/86/23 73/110/23 52/88/23
f 35/71/24 74/111/24 38/74/24
f 60/96/25 75/112/25 62/98/25
f 48/84/26 76/113/26 77/114/26
f 56/92/27 78/115/27 58/94/27
f 67/103/28 79/116/28 69/105/28
f 42/78/29 80/117/29 44/80/29
f 52/88/30 81/118/30 54/90/30
f 64/100/31 75/112/31 82/119/31
f 38/74/32 83/120/32 40/76/32
f 50/86/33 77/114/33 84/121/33
f 58/94/34 85/122/34 60/96/34
f 69/105/35 86/123/35 35/124/35
f 44/80/36 76/113/36 46/82/36
f 56/92/37 81/118/37 87/125/37
f 64/100/38 88/126/38 67/103/38
f 89/127/39 90/128/39 91/129/39
f 92/130/40 93/131/40 94/132/40
f 70/107/41 95/133/41 96/134/41
f 94/132/42 97/135/42 98/136/42
f 96/134/43 99/137/43 100/138/43
f 98/136/44 101/139/44 102/140/44
f 100/138/45 103/141/45 104/142/45
f 102/140/46 105/143/46 106/144/46
f 107/145/47 103/141/47 108/146/47
f 109/147/48 110/148/48 111/149/48
f 106/144/49 112/150/49 113/151/49
f 107/145/50 89/127/50 114/152/50
f 109/147/51 115/153/51 116/154/51
f 113/151/52 110/155/52 117/156/52
f 118/157/53 89/127/53 91/129/53
f 116/154/54 71/108/54 119/158/54
f 118/157/55 120/159/55 92/130/55
f 78/115/56 118/157/56 92/130/56
f 83/120/57 119/158/57 66/102/57
f 81/118/58 118/157/58 87/125/58
f 79/116/59 117/156/59 86/123/59
f 74/111/60 116/154/60 83/120/60
f 73/110/61 114/152/61 81/118/61
f 79/116/62 106/144/62 113/151/62
f 86/160/63 109/147/63 74/111/63
f 84/121/64 107/145/64 73/110/64
f 88/126/65 102/140/65 106/144/65
f 77/114/66 104/142/66 84/121/66
f 82/119/67 98/136/67 102/140/67
f 76/113/68 100/138/68 77/114/68
f 75/112/69 94/132/69 98/136/69
f 80/117/70 96/134/70 76/113/70
f 85/122/71 92/130/71 94/132/71
f 80/117/72 119/158/72 70/107/72
f 121/161/16 122/162/16 123/163/16
f 71/108/73 124/164/73 125/165/73
f 91/129/74 126/166/74 120/159/74
f 72/109/75 125/165/75 127/167/75
f 120/159/76 128/168/76 93/131/76
f 95/133/77 127/167/77 123/169/77
f 93/131/78 129/170/78 97/135/78
f 99/137/79 123/169/79 130/171/79
f 97/135/80 131/172/80 101/139/80
f 103/141/81 130/171/81 132/173/81
f 101/139/82 133/174/82 105/143/82
f 108/146/83 132/173/83 134/175/83
f 111/149/84 121/176/84 135/177/84
f 105/143/85 136/178/85 112/150/85
f 108/146/86 122/179/86 89/127/86
f 115/153/87 135/177/87 124/164/87
f 112/150/88 121/180/88 110/155/88
f 124/181/16 135/182/16 121/161/16
f 121/161/16 136/183/16 133/184/16
f 133/184/16 131/185/16 129/186/16
f 129/186/16 128/187/16 126/188/16
f 126/188/16 90/189/16 129/186/16
f 90/189/16 122/162/16 129/186/16
f 122/162/16 134/190/16 132/191/16
f 132/191/16 130/192/16 123/163/16
f 123/163/16 127/193/16 125/194/16
f 125/194/16 124/181/16 123/163/16
f 124/181/16 121/161/16 123/163/16
f 121/161/16 133/184/16 122/162/16
f 133/184/16 129/186/16 122/162/16
f 122/162/16 132/191/16 123/163/16
f 35/71/20 38/74/20 36/72/20
f 38/74/2 40/76/2 39/75/2
f 40/76/3 42/78/3 41/77/3
f 42/78/4 44/80/4 43/79/4
f 44/80/5 46/82/5 45/81/5
f 46/82/6 48/84/6 47/83/6
f 48/84/7 50/86/7 49/85/7
f 50/86/8 52/88/8 51/87/8
f 52/88/9 54/90/9 53/89/9
f 54/90/10 56/92/10 55/91/10
f 56/92/11 58/94/11 57/93/11
f 58/94/12 60/96/12 59/95/12
f 60/96/13 62/98/13 61/97/13
f 62/98/14 64/100/14 63/99/14
f 64/100/15 67/103/15 65/101/15
f 40/76/21 83/120/21 66/102/21
f 67/103/17 69/105/17 68/104/17
f 69/105/89 35/124/89 37/106/89
f 70/107/22 119/158/22 71/108/22
f 50/86/23 84/121/23 73/110/23
f 35/71/24 86/160/24 74/111/24
f 60/96/25 85/122/25 75/112/25
f 48/84/26 46/82/26 76/113/26
f 56/92/27 87/125/27 78/115/27
f 67/103/28 88/126/28 79/116/28
f 42/78/29 66/102/29 80/117/29
f 52/88/30 73/110/30 81/118/30
f 64/100/31 62/98/31 75/112/31
f 38/74/32 74/111/32 83/120/32
f 50/86/90 48/84/90 77/114/90
f 58/94/34 78/115/34 85/122/34
f 69/105/35 79/116/35 86/123/35
f 44/80/36 80/117/36 76/113/36
f 56/92/37 54/90/37 81/118/37
f 64/100/38 82/119/38 88/126/38
f 89/127/39 122/179/39 90/128/39
f 92/130/40 120/159/40 93/131/40
f 70/107/41 72/109/41 95/133/41
f 94/132/42 93/131/42 97/135/42
f 96/134/43 95/133/43 99/137/43
f 98/136/44 97/135/44 101/139/44
f 100/138/91 99/137/91 103/141/91
f 102/140/46 101/139/46 105/143/46
f 107/145/47 104/142/47 103/141/47
f 109/147/48 117/195/48 110/148/48
f 106/144/49 105/143/49 112/150/49
f 107/145/50 108/146/50 89/127/50
f 109/147/51 111/149/51 115/153/51
f 113/151/52 112/150/52 110/155/52
f 118/157/53 114/152/53 89/127/53
f 116/154/54 115/153/54 71/108/54
f 118/157/92 91/129/92 120/159/92
f 78/115/56 87/125/56 118/157/56
f 83/120/57 116/154/57 119/158/57
f 81/118/58 114/152/58 118/157/58
f 79/116/59 113/151/59 117/156/59
f 74/111/60 109/147/60 116/154/60
f 73/110/61 107/145/61 114/152/61
f 79/116/62 88/126/62 106/144/62
f 86/160/63 117/195/63 109/147/63
f 84/121/64 104/142/64 107/145/64
f 88/126/65 82/119/65 102/140/65
f 77/114/66 100/138/66 104/142/66
f 82/119/67 75/112/67 98/136/67
f 76/113/68 96/134/68 100/138/68
f 75/112/69 85/122/69 94/132/69
f 80/117/70 70/107/70 96/134/70
f 85/122/71 78/115/71 92/130/71
f 80/117/72 66/102/72 119/158/72
f 71/108/73 115/153/73 124/164/73
f 91/129/74 90/128/74 126/166/74
f 72/109/75 71/108/75 125/165/75
f 120/159/76 126/166/76 128/168/76
f 95/133/77 72/109/77 127/167/77
f 93/131/78 128/168/78 129/170/78
f 99/137/79 95/133/79 123/169/79
f 97/135/80 129/170/80 131/172/80
f 103/141/81 99/137/81 130/171/81
f 101/139/82 131/172/82 133/174/82
f 108/146/83 103/141/83 132/173/83
f 111/149/84 110/148/84 121/176/84
f 105/143/85 133/174/85 136/178/85
f 108/146/86 134/175/86 122/179/86
f 115/153/87 111/149/87 135/177/87
f 112/150/88 136/178/88 121/180/88
