# Blender v3.0.0 OBJ File: 'glassTableBroken.blend'
# www.blender.org
o Cylinder
v -0.005467 -0.018525 -2.026406
v 0.005467 0.175289 -2.026406
v 0.546645 -0.049672 -1.987469
v 0.557579 0.144142 -1.987469
v 1.077539 -0.079622 -1.872155
v 1.088473 0.114192 -1.872155
v 1.566815 -0.107225 -1.684895
v 1.577748 0.086590 -1.684895
v 1.995668 -0.131418 -1.432885
v 2.006602 0.062396 -1.432885
v 2.347619 -0.151273 -1.125811
v 2.358552 0.042541 -1.125811
v 2.609142 -0.166027 -0.775472
v 2.620075 0.027788 -0.775472
v 2.770187 -0.175112 -0.395332
v 2.781121 0.018702 -0.395332
v 2.824565 -0.178180 0.000000
v 2.835499 0.015635 0.000000
v 2.770187 -0.175112 0.395332
v 2.781121 0.018702 0.395332
v 2.609142 -0.166027 0.775472
v 2.620075 0.027788 0.775472
v 2.347619 -0.151273 1.125811
v 2.358552 0.042541 1.125811
v 1.995668 -0.131418 1.432885
v 2.006602 0.062396 1.432885
v 1.566814 -0.107225 1.684895
v 1.577748 0.086590 1.684895
v 1.077540 -0.079622 1.872155
v 1.088473 0.114192 1.872155
v 0.546645 -0.049672 1.987469
v 0.557579 0.144142 1.987469
v -0.005467 -0.018525 2.026406
v 0.005467 0.175289 2.026406
v -0.557579 0.012622 1.987469
v -0.546645 0.206436 1.987469
v -1.088473 0.042572 1.872155
v -1.077539 0.236386 1.872155
v -1.577749 0.070174 1.684895
v -1.566815 0.263988 1.684895
v -2.006602 0.094367 1.432886
v -1.995668 0.288182 1.432886
v -2.358552 0.114222 1.125811
v -2.347618 0.308037 1.125811
v -2.620075 0.128976 0.775472
v -2.609142 0.322791 0.775472
v -2.781121 0.138061 0.395332
v -2.770187 0.331876 0.395332
v -2.835499 0.141129 -0.000000
v -2.824565 0.334943 -0.000000
v -2.781121 0.138061 -0.395332
v -2.770187 0.331876 -0.395332
v -2.620075 0.128976 -0.775472
v -2.609141 0.322791 -0.775472
v -2.358553 0.114222 -1.125811
v -2.347619 0.308037 -1.125811
v -2.006602 0.094367 -1.432885
v -1.995668 0.288182 -1.432885
v -1.577749 0.070174 -1.684895
v -1.566815 0.263988 -1.684895
v -1.088473 0.042572 -1.872155
v -1.077539 0.236386 -1.872155
v -0.557579 0.012622 -1.987469
v -0.546645 0.206436 -1.987469
vt 1.000000 0.592789
vt 0.968750 0.510361
vt 1.000000 0.510361
vt 0.968750 0.592789
vt 0.937500 0.510361
vt 0.937500 0.592789
vt 0.906250 0.510361
vt 0.906250 0.592789
vt 0.875000 0.510361
vt 0.875000 0.592789
vt 0.843750 0.510361
vt 0.843750 0.592789
vt 0.812500 0.510361
vt 0.812500 0.592789
vt 0.781250 0.510361
vt 0.781250 0.592789
vt 0.750000 0.510361
vt 0.750000 0.592789
vt 0.718750 0.510361
vt 0.718750 0.592789
vt 0.687500 0.510361
vt 0.687500 0.592789
vt 0.656250 0.510361
vt 0.656250 0.592789
vt 0.625000 0.510361
vt 0.625000 0.592789
vt 0.593750 0.510361
vt 0.593750 0.592789
vt 0.562500 0.510361
vt 0.562500 0.592789
vt 0.531250 0.510361
vt 0.531250 0.592789
vt 0.500000 0.510361
vt 0.500000 0.592789
vt 0.468750 0.510361
vt 0.468750 0.592789
vt 0.437500 0.510361
vt 0.437500 0.592789
vt 0.406250 0.510361
vt 0.406250 0.592789
vt 0.375000 0.510361
vt 0.375000 0.592789
vt 0.343750 0.510361
vt 0.343750 0.592789
vt 0.312500 0.510361
vt 0.312500 0.592789
vt 0.281250 0.510361
vt 0.281250 0.592789
vt 0.250000 0.510361
vt 0.250000 0.592789
vt 0.218750 0.510361
vt 0.218750 0.592789
vt 0.187500 0.510361
vt 0.187500 0.592789
vt 0.156250 0.510361
vt 0.156250 0.592789
vt 0.125000 0.510361
vt 0.125000 0.592789
vt 0.093750 0.510361
vt 0.093750 0.592789
vt 0.062500 0.510361
vt 0.028269 0.341844
vt 0.158156 0.028269
vt 0.471731 0.158156
vt 0.062500 0.592789
vt 0.031250 0.510361
vt 0.031250 0.592789
vt 0.000000 0.510361
vt 0.985388 0.296822
vt 0.796822 0.014612
vt 0.514612 0.203178
vt 0.341844 0.471731
vt 0.296822 0.485388
vt 0.158156 0.471731
vt 0.250000 0.490000
vt 0.203178 0.485388
vt 0.116663 0.449553
vt 0.080294 0.419706
vt 0.050447 0.383337
vt 0.014612 0.296822
vt 0.010000 0.250000
vt 0.014612 0.203178
vt 0.028269 0.158156
vt 0.050447 0.116663
vt 0.080294 0.080294
vt 0.116663 0.050447
vt 0.203178 0.014612
vt 0.250000 0.010000
vt 0.296822 0.014612
vt 0.341844 0.028269
vt 0.383337 0.050447
vt 0.419706 0.080294
vt 0.449553 0.116663
vt 0.485388 0.203178
vt 0.490000 0.250000
vt 0.485388 0.296822
vt 0.471731 0.341844
vt 0.449553 0.383337
vt 0.419706 0.419706
vt 0.383337 0.449553
vt 0.000000 0.592789
vt 0.703178 0.485388
vt 0.750000 0.490000
vt 0.796822 0.485388
vt 0.841844 0.471731
vt 0.883337 0.449553
vt 0.919706 0.419706
vt 0.949553 0.383337
vt 0.971731 0.341844
vt 0.990000 0.250000
vt 0.985388 0.203178
vt 0.971731 0.158156
vt 0.949553 0.116663
vt 0.919706 0.080294
vt 0.883337 0.050447
vt 0.841844 0.028269
vt 0.750000 0.010000
vt 0.703178 0.014612
vt 0.658156 0.028269
vt 0.616663 0.050447
vt 0.580294 0.080294
vt 0.550447 0.116663
vt 0.528269 0.158156
vt 0.510000 0.250000
vt 0.514612 0.296822
vt 0.528269 0.341844
vt 0.550447 0.383337
vt 0.580294 0.419706
vt 0.616663 0.449553
vt 0.658156 0.471731
vn 0.0701 -0.0040 -0.9975
vn 0.2116 -0.0119 -0.9773
vn 0.3564 -0.0201 -0.9341
vn 0.5052 -0.0285 -0.8625
vn 0.6558 -0.0370 -0.7540
vn 0.7996 -0.0451 -0.5988
vn 0.9191 -0.0518 -0.3906
vn 0.9891 -0.0558 -0.1365
vn 0.9891 -0.0558 0.1365
vn 0.9191 -0.0518 0.3906
vn 0.7996 -0.0451 0.5988
vn 0.6558 -0.0370 0.7540
vn 0.5052 -0.0285 0.8625
vn 0.3564 -0.0201 0.9341
vn 0.2116 -0.0119 0.9773
vn 0.0701 -0.0040 0.9975
vn -0.0701 0.0040 0.9975
vn -0.2116 0.0119 0.9773
vn -0.3564 0.0201 0.9341
vn -0.5052 0.0285 0.8625
vn -0.6558 0.0370 0.7540
vn -0.7996 0.0451 0.5988
vn -0.9191 0.0518 0.3906
vn -0.9891 0.0558 0.1365
vn -0.9891 0.0558 -0.1365
vn -0.9191 0.0519 -0.3906
vn -0.7996 0.0451 -0.5988
vn -0.6558 0.0370 -0.7540
vn -0.5052 0.0285 -0.8625
vn -0.3564 0.0201 -0.9341
vn 0.0563 0.9984 -0.0000
vn -0.2116 0.0119 -0.9773
vn -0.0701 0.0040 -0.9975
vn -0.0563 -0.9984 0.0000
vn -0.9191 0.0518 -0.3906
s off
f 2/1/1 3/2/1 1/3/1
f 4/4/2 5/5/2 3/2/2
f 6/6/3 7/7/3 5/5/3
f 8/8/4 9/9/4 7/7/4
f 10/10/5 11/11/5 9/9/5
f 12/12/6 13/13/6 11/11/6
f 14/14/7 15/15/7 13/13/7
f 16/16/8 17/17/8 15/15/8
f 18/18/9 19/19/9 17/17/9
f 20/20/10 21/21/10 19/19/10
f 22/22/11 23/23/11 21/21/11
f 24/24/12 25/25/12 23/23/12
f 26/26/13 27/27/13 25/25/13
f 28/28/14 29/29/14 27/27/14
f 30/30/15 31/31/15 29/29/15
f 32/32/16 33/33/16 31/31/16
f 34/34/17 35/35/17 33/33/17
f 36/36/18 37/37/18 35/35/18
f 38/38/19 39/39/19 37/37/19
f 40/40/20 41/41/20 39/39/20
f 42/42/21 43/43/21 41/41/21
f 44/44/22 45/45/22 43/43/22
f 46/46/23 47/47/23 45/45/23
f 48/48/24 49/49/24 47/47/24
f 50/50/25 51/51/25 49/49/25
f 52/52/26 53/53/26 51/51/26
f 54/54/27 55/55/27 53/53/27
f 56/56/28 57/57/28 55/55/28
f 58/58/29 59/59/29 57/57/29
f 60/60/30 61/61/30 59/59/30
f 54/62/31 38/63/31 22/64/31
f 62/65/32 63/66/32 61/61/32
f 64/67/33 1/68/33 63/66/33
f 15/69/34 31/70/34 47/71/34
f 2/1/1 4/4/1 3/2/1
f 4/4/2 6/6/2 5/5/2
f 6/6/3 8/8/3 7/7/3
f 8/8/4 10/10/4 9/9/4
f 10/10/5 12/12/5 11/11/5
f 12/12/6 14/14/6 13/13/6
f 14/14/7 16/16/7 15/15/7
f 16/16/8 18/18/8 17/17/8
f 18/18/9 20/20/9 19/19/9
f 20/20/10 22/22/10 21/21/10
f 22/22/11 24/24/11 23/23/11
f 24/24/12 26/26/12 25/25/12
f 26/26/13 28/28/13 27/27/13
f 28/28/14 30/30/14 29/29/14
f 30/30/15 32/32/15 31/31/15
f 32/32/16 34/34/16 33/33/16
f 34/34/17 36/36/17 35/35/17
f 36/36/18 38/38/18 37/37/18
f 38/38/19 40/40/19 39/39/19
f 40/40/20 42/42/20 41/41/20
f 42/42/21 44/44/21 43/43/21
f 44/44/22 46/46/22 45/45/22
f 46/46/23 48/48/23 47/47/23
f 48/48/24 50/50/24 49/49/24
f 50/50/25 52/52/25 51/51/25
f 52/52/35 54/54/35 53/53/35
f 54/54/27 56/56/27 55/55/27
f 56/56/28 58/58/28 57/57/28
f 58/58/29 60/60/29 59/59/29
f 60/60/30 62/65/30 61/61/30
f 6/72/31 4/73/31 62/74/31
f 4/73/31 2/75/31 62/74/31
f 2/75/31 64/76/31 62/74/31
f 62/74/31 60/77/31 58/78/31
f 58/78/31 56/79/31 62/74/31
f 56/79/31 54/62/31 62/74/31
f 54/62/31 52/80/31 50/81/31
f 50/81/31 48/82/31 46/83/31
f 46/83/31 44/84/31 42/85/31
f 42/85/31 40/86/31 38/63/31
f 38/63/31 36/87/31 34/88/31
f 34/88/31 32/89/31 30/90/31
f 30/90/31 28/91/31 26/92/31
f 26/92/31 24/93/31 22/64/31
f 22/64/31 20/94/31 18/95/31
f 18/95/31 16/96/31 14/97/31
f 14/97/31 12/98/31 10/99/31
f 10/99/31 8/100/31 6/72/31
f 54/62/31 50/81/31 38/63/31
f 50/81/31 46/83/31 38/63/31
f 46/83/31 42/85/31 38/63/31
f 38/63/31 34/88/31 30/90/31
f 30/90/31 26/92/31 38/63/31
f 26/92/31 22/64/31 38/63/31
f 22/64/31 18/95/31 6/72/31
f 18/95/31 14/97/31 6/72/31
f 14/97/31 10/99/31 6/72/31
f 6/72/31 62/74/31 54/62/31
f 6/72/31 54/62/31 22/64/31
f 62/65/32 64/67/32 63/66/32
f 64/67/33 2/101/33 1/68/33
f 63/102/34 1/103/34 3/104/34
f 3/104/34 5/105/34 7/106/34
f 7/106/34 9/107/34 11/108/34
f 11/108/34 13/109/34 15/69/34
f 15/69/34 17/110/34 19/111/34
f 19/111/34 21/112/34 23/113/34
f 23/113/34 25/114/34 27/115/34
f 27/115/34 29/116/34 31/70/34
f 31/70/34 33/117/34 35/118/34
f 35/118/34 37/119/34 39/120/34
f 39/120/34 41/121/34 43/122/34
f 43/122/34 45/123/34 47/71/34
f 47/71/34 49/124/34 51/125/34
f 51/125/34 53/126/34 47/71/34
f 53/126/34 55/127/34 47/71/34
f 55/127/34 57/128/34 59/129/34
f 59/129/34 61/130/34 55/127/34
f 61/130/34 63/102/34 55/127/34
f 63/102/34 3/104/34 15/69/34
f 3/104/34 7/106/34 15/69/34
f 7/106/34 11/108/34 15/69/34
f 15/69/34 19/111/34 23/113/34
f 23/113/34 27/115/34 15/69/34
f 27/115/34 31/70/34 15/69/34
f 31/70/34 35/118/34 47/71/34
f 35/118/34 39/120/34 47/71/34
f 39/120/34 43/122/34 47/71/34
f 47/71/34 55/127/34 63/102/34
f 63/102/34 15/69/34 47/71/34
o Cube_Cube.001
v 3.810591 -0.096961 1.122154
v 2.756743 -0.095366 1.122154
v 3.810591 -0.096961 0.929827
v 2.756743 -0.095366 0.929827
v 3.810882 0.095366 1.122154
v 2.757034 0.096961 1.122154
v 3.810882 0.095366 0.929827
v 2.757034 0.096961 0.929827
vt 0.189717 0.651004
vt 0.116342 0.724379
vt 0.116342 0.651004
vt 0.189717 0.724379
vt 0.116342 0.797755
vt 0.189717 0.797755
vt 0.116342 0.871130
vt 0.189717 0.871130
vt 0.116342 0.944505
vt 0.042967 0.871130
vt 0.042967 0.797755
vt 0.263093 0.797755
vt 0.189717 0.944505
vt 0.263093 0.871130
vn -0.0015 -1.0000 0.0000
vn -0.0000 0.0000 -1.0000
vn 0.0015 1.0000 0.0000
vn 0.0000 0.0000 1.0000
vn 1.0000 -0.0015 0.0000
vn -1.0000 0.0015 0.0000
s off
f 66/131/36 67/132/36 65/133/36
f 68/134/37 71/135/37 67/132/37
f 72/136/38 69/137/38 71/135/38
f 70/138/39 65/139/39 69/137/39
f 71/135/40 65/140/40 67/141/40
f 68/142/41 70/138/41 72/136/41
f 66/131/36 68/134/36 67/132/36
f 68/134/37 72/136/37 71/135/37
f 72/136/38 70/138/38 69/137/38
f 70/138/39 66/143/39 65/139/39
f 71/135/40 69/137/40 65/140/40
f 68/142/41 66/144/41 70/138/41
o Cube.001_Cube.002
v 3.985748 -0.096961 -1.067304
v 3.044749 -0.095366 -0.592841
v 3.899159 -0.096961 -1.239036
v 2.958159 -0.095366 -0.764573
v 3.986008 0.095366 -1.067435
v 3.045008 0.096961 -0.592972
v 3.899419 0.095366 -1.239167
v 2.958419 0.096961 -0.764704
vt 0.321167 0.919878
vt 0.395013 0.844832
vt 0.395613 0.919278
vt 0.320567 0.845432
vt 0.394412 0.770386
vt 0.319966 0.770986
vt 0.393812 0.695940
vt 0.319366 0.696540
vt 0.393211 0.621494
vt 0.468258 0.695340
vt 0.468858 0.769786
vt 0.245520 0.771587
vt 0.318765 0.622095
vt 0.244920 0.697141
vn -0.0014 -1.0000 0.0007
vn -0.4502 0.0000 -0.8929
vn 0.0014 1.0000 -0.0007
vn 0.4502 0.0000 0.8929
vn 0.8929 -0.0015 -0.4502
vn -0.8929 0.0015 0.4502
s off
f 74/145/42 75/146/42 73/147/42
f 76/148/43 79/149/43 75/146/43
f 80/150/44 77/151/44 79/149/44
f 78/152/45 73/153/45 77/151/45
f 79/149/46 73/154/46 75/155/46
f 76/156/47 78/152/47 80/150/47
f 74/145/42 76/148/42 75/146/42
f 76/148/43 80/150/43 79/149/43
f 80/150/44 78/152/44 77/151/44
f 78/152/45 74/157/45 73/153/45
f 79/149/46 77/151/46 73/154/46
f 76/156/47 74/158/47 78/152/47
o Cube.002_Cube.003
v -3.160985 0.106829 2.224308
v -2.659644 0.078631 1.297777
v -3.329951 0.113511 2.132678
v -2.828609 0.085313 1.206147
v -3.169312 -0.085313 2.225650
v -2.667970 -0.113511 1.299119
v -3.338277 -0.078631 2.134020
v -2.836935 -0.106829 1.207490
vt 0.622039 0.663949
vt 0.545294 0.740695
vt 0.545294 0.663949
vt 0.622039 0.740695
vt 0.545294 0.817441
vt 0.622039 0.817441
vt 0.545294 0.894187
vt 0.622039 0.894187
vt 0.545294 0.970933
vt 0.468548 0.894187
vt 0.468548 0.817441
vt 0.698785 0.817441
vt 0.622039 0.970933
vt 0.698785 0.894187
vn 0.0433 0.9990 -0.0070
vn -0.8785 0.0347 -0.4764
vn -0.0433 -0.9990 0.0070
vn 0.8785 -0.0347 0.4764
vn -0.4757 0.0268 0.8792
vn 0.4757 -0.0268 -0.8792
s off
f 82/159/48 83/160/48 81/161/48
f 84/162/49 87/163/49 83/160/49
f 88/164/50 85/165/50 87/163/50
f 86/166/51 81/167/51 85/165/51
f 87/163/52 81/168/52 83/169/52
f 84/170/53 86/166/53 88/164/53
f 82/159/48 84/162/48 83/160/48
f 84/162/49 88/164/49 87/163/49
f 88/164/50 86/166/50 85/165/50
f 86/166/51 82/171/51 81/167/51
f 87/163/52 85/165/52 81/168/52
f 84/170/53 82/172/53 86/166/53
o Cube.003_Cube.004
v -3.416223 0.088175 -1.045133
v -2.447218 0.104130 -0.631161
v -3.340664 0.088175 -1.221997
v -2.371660 0.104130 -0.808025
v -3.413545 -0.104130 -1.043989
v -2.444541 -0.088175 -0.630017
v -3.337987 -0.104130 -1.220853
v -2.368982 -0.088175 -0.806881
vt 0.781952 0.927405
vt 0.852930 0.856428
vt 0.852930 0.927405
vt 0.781952 0.856428
vt 0.852930 0.785451
vt 0.781952 0.785451
vt 0.852930 0.714473
vt 0.781952 0.714473
vt 0.852930 0.643496
vt 0.923907 0.714473
vt 0.923907 0.785451
vt 0.710975 0.785451
vt 0.781952 0.643496
vt 0.710975 0.714473
vn -0.0139 0.9999 -0.0059
vn 0.3929 -0.0000 -0.9196
vn 0.0139 -0.9999 0.0059
vn -0.3929 0.0000 0.9196
vn -0.9195 -0.0151 -0.3928
vn 0.9195 0.0151 0.3928
s off
f 90/173/54 91/174/54 89/175/54
f 92/176/55 95/177/55 91/174/55
f 96/178/56 93/179/56 95/177/56
f 94/180/57 89/181/57 93/179/57
f 95/177/58 89/182/58 91/183/58
f 92/184/59 94/180/59 96/178/59
f 90/173/54 92/176/54 91/174/54
f 92/176/55 96/178/55 95/177/55
f 96/178/56 94/180/56 93/179/56
f 94/180/57 90/185/57 89/181/57
f 95/177/58 93/179/58 89/182/58
f 92/184/59 90/186/59 94/180/59
