# Blender v3.0.0 OBJ File: 'pictures.blend'
# www.blender.org
o Cube
v 0.264089 7.010890 8.980854
v 0.264089 5.010890 8.980854
v 0.264089 7.010890 10.980854
v 0.264089 5.010890 10.980854
v -0.311612 7.010890 8.980854
v -0.311612 5.010890 8.980854
v -0.311612 7.010890 10.980854
v -0.311612 5.010890 10.980854
v 0.264089 6.815217 10.780266
v 0.264089 5.206563 10.780266
v 0.264089 6.815217 9.181442
v 0.264089 5.206563 9.181442
v -0.202207 6.815217 10.780266
v -0.202207 5.206563 10.780266
v -0.202207 6.815217 9.181442
v -0.202207 5.206563 9.181442
vt 0.120978 0.812910
vt 0.108390 0.740646
vt 0.108390 0.812910
vt 0.265572 0.898269
vt 0.193749 0.988114
vt 0.265572 0.988114
vt 0.265572 0.812910
vt 0.193749 0.885681
vt 0.265572 0.885681
vt 0.265572 0.655287
vt 0.193749 0.667875
vt 0.265572 0.667875
vt 0.265572 0.740646
vt 0.193749 0.812910
vt 0.350931 0.812910
vt 0.338343 0.740646
vt 0.338343 0.812910
vt 0.193749 0.740646
vt 0.120978 0.740646
vt 0.193749 0.565442
vt 0.265572 0.565442
vt 0.440776 0.812910
vt 0.350931 0.740646
vt 0.018545 0.740646
vt 0.018545 0.812910
vt 0.530620 0.740646
vt 0.440776 0.740646
vt 0.193749 0.898269
vt 0.193749 0.655287
vt 0.530620 0.812910
vn 1.0000 0.0000 0.0000
vn 0.0000 1.0000 0.0000
vn 0.0000 -1.0000 0.0000
vn 0.0000 0.0000 1.0000
vn 0.0000 0.0000 -1.0000
vn -1.0000 0.0000 0.0000
s off
f 11/1/1 2/2/1 1/3/1
f 3/4/2 5/5/2 7/6/2
f 13/7/3 11/8/3 9/9/3
f 4/10/1 12/11/1 10/12/1
f 14/13/1 15/14/1 13/7/1
f 12/11/2 14/13/2 10/12/2
f 3/15/1 10/16/1 9/17/1
f 11/1/4 16/18/4 12/19/4
f 6/20/3 4/10/3 8/21/3
f 7/22/4 4/23/4 3/15/4
f 1/3/5 6/24/5 5/25/5
f 7/22/6 6/26/6 8/27/6
f 10/16/5 13/7/5 9/17/5
f 11/8/1 3/4/1 9/9/1
f 11/1/1 12/19/1 2/2/1
f 3/4/2 1/28/2 5/5/2
f 13/7/3 15/14/3 11/8/3
f 4/10/1 2/29/1 12/11/1
f 14/13/1 16/18/1 15/14/1
f 12/11/2 16/18/2 14/13/2
f 3/15/1 4/23/1 10/16/1
f 11/1/4 15/14/4 16/18/4
f 6/20/3 2/29/3 4/10/3
f 7/22/4 8/27/4 4/23/4
f 1/3/5 2/2/5 6/24/5
f 7/22/6 5/30/6 6/26/6
f 10/16/5 14/13/5 13/7/5
f 11/8/1 1/28/1 3/4/1
o Cube.001_Cube.005
v 0.264089 3.248989 5.226363
v 0.264089 1.248989 5.226363
v 0.264089 3.248989 7.226363
v 0.264089 1.248989 7.226363
v -0.311612 3.248989 5.226363
v -0.311612 1.248989 5.226363
v -0.311612 3.248989 7.226363
v -0.311612 1.248989 7.226363
v 0.264089 3.053317 7.025775
v 0.264089 1.444662 7.025775
v 0.264089 3.053317 5.426951
v 0.264089 1.444662 5.426951
v -0.202207 3.053317 7.025775
v -0.202207 1.444662 7.025775
v -0.202207 3.053317 5.426951
v -0.202207 1.444662 5.426951
vt 0.219739 0.531969
vt 0.206906 0.458297
vt 0.206906 0.531969
vt 0.367149 0.618990
vt 0.293927 0.710585
vt 0.367149 0.710585
vt 0.367149 0.531969
vt 0.293927 0.606157
vt 0.367149 0.606157
vt 0.367149 0.371276
vt 0.293927 0.384109
vt 0.367149 0.384109
vt 0.367149 0.458297
vt 0.293927 0.531969
vt 0.454170 0.531969
vt 0.441337 0.458297
vt 0.441337 0.531969
vt 0.293927 0.458297
vt 0.219739 0.458297
vt 0.293927 0.279681
vt 0.367149 0.279681
vt 0.545765 0.531969
vt 0.454170 0.458297
vt 0.115311 0.458297
vt 0.115311 0.531969
vt 0.637359 0.458297
vt 0.545765 0.458297
vt 0.293927 0.618990
vt 0.293927 0.371276
vt 0.637359 0.531969
vn 1.0000 0.0000 0.0000
vn 0.0000 1.0000 0.0000
vn 0.0000 -1.0000 0.0000
vn 0.0000 0.0000 1.0000
vn 0.0000 0.0000 -1.0000
vn -1.0000 0.0000 0.0000
s off
f 27/31/7 18/32/7 17/33/7
f 19/34/8 21/35/8 23/36/8
f 29/37/9 27/38/9 25/39/9
f 20/40/7 28/41/7 26/42/7
f 30/43/7 31/44/7 29/37/7
f 28/41/8 30/43/8 26/42/8
f 19/45/7 26/46/7 25/47/7
f 27/31/10 32/48/10 28/49/10
f 22/50/9 20/40/9 24/51/9
f 23/52/10 20/53/10 19/45/10
f 17/33/11 22/54/11 21/55/11
f 23/52/12 22/56/12 24/57/12
f 26/46/11 29/37/11 25/47/11
f 27/38/7 19/34/7 25/39/7
f 27/31/7 28/49/7 18/32/7
f 19/34/8 17/58/8 21/35/8
f 29/37/9 31/44/9 27/38/9
f 20/40/7 18/59/7 28/41/7
f 30/43/7 32/48/7 31/44/7
f 28/41/8 32/48/8 30/43/8
f 19/45/7 20/53/7 26/46/7
f 27/31/10 31/44/10 32/48/10
f 22/50/9 18/59/9 20/40/9
f 23/52/10 24/57/10 20/53/10
f 17/33/11 18/32/11 22/54/11
f 23/52/12 21/60/12 22/56/12
f 26/46/11 30/43/11 29/37/11
f 27/38/7 17/58/7 19/34/7
o Cube.002_Cube.006
v 0.264089 0.184286 8.697859
v 0.264089 -1.815714 8.697859
v 0.264089 0.184286 10.697859
v 0.264089 -1.815714 10.697859
v -0.311612 0.184286 8.697859
v -0.311612 -1.815714 8.697859
v -0.311612 0.184286 10.697859
v -0.311612 -1.815714 10.697859
v 0.264089 -0.011387 10.497271
v 0.264089 -1.620042 10.497271
v 0.264089 -0.011387 8.898447
v 0.264089 -1.620042 8.898447
v -0.202207 -0.011387 10.497271
v -0.202207 -1.620042 10.497271
v -0.202207 -0.011387 8.898447
v -0.202207 -1.620042 8.898447
vt 0.101100 0.269519
vt 0.088330 0.196209
vt 0.088330 0.269519
vt 0.247786 0.356113
vt 0.174924 0.447258
vt 0.247786 0.447258
vt 0.247786 0.269519
vt 0.174924 0.343343
vt 0.247786 0.343343
vt 0.247786 0.109615
vt 0.174924 0.122385
vt 0.247786 0.122385
vt 0.247786 0.196209
vt 0.174924 0.269519
vt 0.334380 0.269519
vt 0.321610 0.196209
vt 0.321610 0.269519
vt 0.174924 0.196209
vt 0.101100 0.196209
vt 0.174924 0.018470
vt 0.247786 0.018470
vt 0.425525 0.269519
vt 0.334380 0.196209
vt -0.002815 0.196209
vt -0.002815 0.269519
vt 0.516670 0.196209
vt 0.425525 0.196209
vt 0.174924 0.356113
vt 0.174924 0.109615
vt 0.516670 0.269519
vn 1.0000 0.0000 0.0000
vn 0.0000 1.0000 0.0000
vn 0.0000 -1.0000 0.0000
vn 0.0000 0.0000 1.0000
vn 0.0000 0.0000 -1.0000
vn -1.0000 0.0000 0.0000
s off
f 43/61/13 34/62/13 33/63/13
f 35/64/14 37/65/14 39/66/14
f 45/67/15 43/68/15 41/69/15
f 36/70/13 44/71/13 42/72/13
f 46/73/13 47/74/13 45/67/13
f 44/71/14 46/73/14 42/72/14
f 35/75/13 42/76/13 41/77/13
f 43/61/16 48/78/16 44/79/16
f 38/80/15 36/70/15 40/81/15
f 39/82/16 36/83/16 35/75/16
f 33/63/17 38/84/17 37/85/17
f 39/82/18 38/86/18 40/87/18
f 42/76/17 45/67/17 41/77/17
f 43/68/13 35/64/13 41/69/13
f 43/61/13 44/79/13 34/62/13
f 35/64/14 33/88/14 37/65/14
f 45/67/15 47/74/15 43/68/15
f 36/70/13 34/89/13 44/71/13
f 46/73/13 48/78/13 47/74/13
f 44/71/14 48/78/14 46/73/14
f 35/75/13 36/83/13 42/76/13
f 43/61/16 47/74/16 48/78/16
f 38/80/15 34/89/15 36/70/15
f 39/82/16 40/87/16 36/83/16
f 33/63/17 34/62/17 38/84/17
f 39/82/18 37/90/18 38/86/18
f 42/76/17 46/73/17 45/67/17
f 43/68/13 33/88/13 35/64/13
o Cube.003_Cube.007
v 0.264089 5.873774 -5.270980
v 0.264089 3.873774 -5.270980
v 0.264089 5.873774 -3.270980
v 0.264089 3.873774 -3.270980
v -0.311612 5.873774 -5.270980
v -0.311612 3.873774 -5.270980
v -0.311612 5.873774 -3.270980
v -0.311612 3.873774 -3.270980
v 0.264089 5.678101 -3.471568
v 0.264089 4.069447 -3.471568
v 0.264089 5.678101 -5.070392
v 0.264089 4.069447 -5.070392
v -0.202207 5.678101 -3.471568
v -0.202207 4.069447 -3.471568
v -0.202207 5.678101 -5.070392
v -0.202207 4.069447 -5.070392
vt 0.892565 0.639818
vt 0.905185 0.712264
vt 0.905185 0.639818
vt 0.747608 0.554244
vt 0.819611 0.464173
vt 0.747608 0.464173
vt 0.747608 0.639818
vt 0.819611 0.566864
vt 0.747608 0.566864
vt 0.747608 0.797838
vt 0.819611 0.785218
vt 0.747608 0.785218
vt 0.747608 0.712264
vt 0.819611 0.639818
vt 0.662034 0.639818
vt 0.674654 0.712264
vt 0.674654 0.639818
vt 0.819611 0.712264
vt 0.892565 0.712264
vt 0.819611 0.887909
vt 0.747608 0.887909
vt 0.571963 0.639818
vt 0.662034 0.712264
vt 0.995256 0.712264
vt 0.995256 0.639818
vt 0.481892 0.712264
vt 0.571963 0.712264
vt 0.819611 0.554244
vt 0.819611 0.797838
vt 0.481892 0.639818
vn 1.0000 0.0000 0.0000
vn 0.0000 1.0000 0.0000
vn 0.0000 -1.0000 0.0000
vn 0.0000 0.0000 1.0000
vn 0.0000 0.0000 -1.0000
vn -1.0000 0.0000 0.0000
s off
f 59/91/19 50/92/19 49/93/19
f 51/94/20 53/95/20 55/96/20
f 61/97/21 59/98/21 57/99/21
f 52/100/19 60/101/19 58/102/19
f 62/103/19 63/104/19 61/97/19
f 60/101/20 62/103/20 58/102/20
f 51/105/19 58/106/19 57/107/19
f 59/91/22 64/108/22 60/109/22
f 54/110/21 52/100/21 56/111/21
f 55/112/22 52/113/22 51/105/22
f 49/93/23 54/114/23 53/115/23
f 55/112/24 54/116/24 56/117/24
f 58/106/23 61/97/23 57/107/23
f 59/98/19 51/94/19 57/99/19
f 59/91/19 60/109/19 50/92/19
f 51/94/20 49/118/20 53/95/20
f 61/97/21 63/104/21 59/98/21
f 52/100/19 50/119/19 60/101/19
f 62/103/19 64/108/19 63/104/19
f 60/101/20 64/108/20 62/103/20
f 51/105/19 52/113/19 58/106/19
f 59/91/22 63/104/22 64/108/22
f 54/110/21 50/119/21 52/100/21
f 55/112/22 56/117/22 52/113/22
f 49/93/23 50/92/23 54/114/23
f 55/112/24 53/120/24 54/116/24
f 58/106/23 62/103/23 61/97/23
f 59/98/19 49/118/19 51/94/19
o Cube.004_Cube.008
v 0.264089 1.483678 -8.596786
v 0.264089 -0.516322 -8.596786
v 0.264089 1.483678 -6.596786
v 0.264089 -0.516322 -6.596786
v -0.311612 1.483678 -8.596786
v -0.311612 -0.516322 -8.596786
v -0.311612 1.483678 -6.596786
v -0.311612 -0.516322 -6.596786
v 0.264089 1.288005 -6.797374
v 0.264089 -0.320649 -6.797374
v 0.264089 1.288005 -8.396198
v 0.264089 -0.320649 -8.396198
v -0.202207 1.288005 -6.797374
v -0.202207 -0.320649 -6.797374
v -0.202207 1.288005 -8.396198
v -0.202207 -0.320649 -8.396198
vt 0.600698 0.367608
vt 0.588647 0.298424
vt 0.588647 0.367608
vt 0.739128 0.449327
vt 0.670367 0.535342
vt 0.739128 0.535342
vt 0.739128 0.367608
vt 0.670367 0.437276
vt 0.739128 0.437276
vt 0.739128 0.216704
vt 0.670367 0.228756
vt 0.739128 0.228756
vt 0.739128 0.298424
vt 0.670367 0.367608
vt 0.820847 0.367608
vt 0.808796 0.298424
vt 0.808796 0.367608
vt 0.670367 0.298424
vt 0.600698 0.298424
vt 0.670367 0.130690
vt 0.739128 0.130690
vt 0.906862 0.367608
vt 0.820848 0.298424
vt 0.502633 0.298424
vt 0.502633 0.367608
vt 0.992876 0.298424
vt 0.906862 0.298424
vt 0.670367 0.449327
vt 0.670367 0.216704
vt 0.992876 0.367608
vn 1.0000 0.0000 0.0000
vn 0.0000 1.0000 0.0000
vn 0.0000 -1.0000 0.0000
vn 0.0000 0.0000 1.0000
vn 0.0000 0.0000 -1.0000
vn -1.0000 0.0000 0.0000
s off
f 75/121/25 66/122/25 65/123/25
f 67/124/26 69/125/26 71/126/26
f 77/127/27 75/128/27 73/129/27
f 68/130/25 76/131/25 74/132/25
f 78/133/25 79/134/25 77/127/25
f 76/131/26 78/133/26 74/132/26
f 67/135/25 74/136/25 73/137/25
f 75/121/28 80/138/28 76/139/28
f 70/140/27 68/130/27 72/141/27
f 71/142/28 68/143/28 67/135/28
f 65/123/29 70/144/29 69/145/29
f 71/142/30 70/146/30 72/147/30
f 74/136/29 77/127/29 73/137/29
f 75/128/25 67/124/25 73/129/25
f 75/121/25 76/139/25 66/122/25
f 67/124/26 65/148/26 69/125/26
f 77/127/27 79/134/27 75/128/27
f 68/130/25 66/149/25 76/131/25
f 78/133/25 80/138/25 79/134/25
f 76/131/26 80/138/26 78/133/26
f 67/135/25 68/143/25 74/136/25
f 75/121/28 79/134/28 80/138/28
f 70/140/27 66/149/27 68/130/27
f 71/142/28 72/147/28 68/143/28
f 65/123/29 66/122/29 70/144/29
f 71/142/30 69/150/30 70/146/30
f 74/136/29 78/133/29 77/127/29
f 75/128/25 65/148/25 67/124/25
