# Blender v3.0.0 OBJ File: 'remote.blend'
# www.blender.org
o Sphere
v -0.000000 0.403440 -0.534384
v -0.000000 0.382683 -0.923880
v -0.000000 0.195090 -0.980785
v -0.000000 -0.000000 -1.000000
v -0.000000 -0.195090 -0.980785
v -0.000000 -0.382683 -0.923880
v -0.000000 -0.555570 -0.831470
v -0.000000 -0.707107 -0.707107
v -0.000000 -0.831470 -0.555570
v -0.000000 -0.851884 -0.382683
v 0.893683 0.403440 -0.377867
v 1.545059 0.382683 -0.653281
v 1.640226 0.195090 -0.693520
v 1.672360 -0.000000 -0.707107
v 1.640226 -0.195090 -0.693520
v 1.545059 -0.382683 -0.653282
v 1.390517 -0.555570 -0.587938
v 1.182537 -0.707107 -0.500000
v 0.929114 -0.831470 -0.392847
v 0.639985 -0.851884 -0.270598
v 0.326261 -0.852040 -0.137950
v 1.088201 0.410283 0.000000
v 1.806350 0.379375 0.000000
v 1.858048 0.195090 0.000000
v 1.847186 -0.000000 0.000000
v 1.839226 -0.195090 0.000000
v 1.817570 -0.382683 0.000000
v 1.795130 -0.555570 0.000000
v 1.601799 -0.707107 0.000000
v 1.313965 -0.831470 0.000000
v 0.905075 -0.851884 0.000000
v 0.461403 -0.852040 0.000000
v 0.893683 0.403440 0.377867
v 1.545059 0.382683 0.653282
v 1.640226 0.195090 0.693520
v 1.672360 -0.000000 0.707107
v 1.640226 -0.195090 0.693520
v 1.545059 -0.382683 0.653282
v 1.390517 -0.555570 0.587938
v 1.182537 -0.707107 0.500000
v 0.929113 -0.831470 0.392848
v 0.639985 -0.851884 0.270598
v 0.326261 -0.852040 0.137950
v -0.000000 0.406218 0.000000
v 0.000000 0.403440 0.534384
v 0.000000 0.382683 0.923880
v 0.000000 0.195090 0.980785
v -0.000000 -0.000000 1.000000
v 0.000000 -0.195090 0.980785
v -0.000000 -0.382683 0.923880
v -0.000000 -0.555570 0.831470
v 0.000000 -0.707107 0.707107
v -0.000000 -0.831470 0.555570
v -0.000000 -0.851884 0.382684
v -0.000000 -0.852040 0.195090
v -0.893683 0.403440 0.377867
v -1.545059 0.382683 0.653282
v -1.640226 0.195090 0.693520
v -1.672360 -0.000000 0.707107
v -1.640226 -0.195090 0.693520
v -1.545059 -0.382683 0.653282
v -1.390517 -0.555570 0.587938
v -1.182537 -0.707107 0.500000
v -0.929113 -0.831470 0.392848
v -0.639985 -0.851884 0.270598
v -0.326261 -0.852040 0.137950
v -1.409013 0.399485 0.000000
v -1.878378 0.382683 0.000000
v -1.913820 0.195090 0.000000
v -1.907386 -0.000000 0.000000
v -1.913820 -0.195090 0.000000
v -1.878378 -0.382683 0.000000
v -1.760180 -0.555570 0.000000
v -1.672360 -0.707107 0.000000
v -1.313965 -0.831470 0.000000
v -0.905075 -0.851884 0.000000
v -0.461403 -0.852040 0.000000
v -0.000000 -0.871255 0.000000
v -0.996322 0.399485 -0.421265
v -1.545059 0.382683 -0.653281
v -1.640226 0.195090 -0.693520
v -1.672360 -0.000000 -0.707107
v -1.640226 -0.195090 -0.693520
v -1.545059 -0.382683 -0.653281
v -1.390516 -0.555570 -0.587938
v -1.182537 -0.707107 -0.500000
v -0.929113 -0.831470 -0.392847
v -0.639985 -0.851884 -0.270598
v -0.326261 -0.852040 -0.137950
v -0.000000 -0.852040 -0.195090
vt 0.697605 0.307134
vt 0.737799 0.590889
vt 0.732917 0.307134
vt 0.770575 0.562506
vt 0.766182 0.307134
vt 0.799857 0.524310
vt 0.796121 0.307134
vt 0.593035 0.339629
vt 0.550093 0.164746
vt 0.565302 0.337309
vt 0.360646 0.298132
vt 0.229866 0.159134
vt 0.259986 0.028456
vt 0.523189 0.215744
vt 0.533666 0.334607
vt 0.626294 0.307134
vt 0.597916 0.590889
vt 0.631476 0.608366
vt 0.493999 0.271070
vt 0.499339 0.331666
vt 0.661603 0.307134
vt 0.666887 0.614268
vt 0.288089 0.315117
vt 0.188541 0.338404
vt 0.463641 0.328616
vt 0.702787 0.608366
vt 0.470875 0.244179
vt 0.066418 0.921588
vt 0.102426 0.799176
vt 0.066591 0.799033
vt 0.032120 0.798612
vt 0.031885 0.912331
vt 0.000350 0.798174
vt 0.000000 0.897288
vt 0.593035 0.083254
vt 0.488759 0.035443
vt 0.573677 0.119999
vt 0.153149 0.140167
vt 0.129791 0.009320
vt 0.484242 0.088166
vt 0.477831 0.162995
vt 0.138076 0.921550
vt 0.172063 0.798312
vt 0.138264 0.799377
vt 0.102275 0.924700
vt 0.390695 0.104322
vt 0.406324 0.152428
vt 0.089084 0.192063
vt 0.016592 0.085387
vt 0.424160 0.207259
vt 0.138076 0.668373
vt 0.443514 0.266745
vt 0.102275 0.666563
vt 0.066418 0.668410
vt 0.031885 0.673844
vt 0.000000 0.682655
vt 0.377870 0.064819
vt 0.859438 0.590889
vt 0.893890 0.307134
vt 0.859438 0.307134
vt 0.827687 0.562506
vt 0.827687 0.307134
vt 0.799857 0.524310
vt 0.799857 0.307134
vt 0.334259 0.317458
vt 0.361982 0.319888
vt 0.016435 0.378644
vt 0.393617 0.322608
vt 1.000000 0.590889
vt 0.965548 0.307134
vt 0.965548 0.608366
vt 0.427943 0.325549
vt 0.929719 0.307134
vt 0.929719 0.614268
vt 0.088993 0.361687
vt 0.893890 0.608366
vt 0.147216 0.517670
vt 0.117095 0.648319
vt 0.404093 0.441471
vt 1.000000 0.023379
vt 0.965548 0.005901
vt 0.433284 0.386145
vt 0.929719 0.000000
vt 0.893890 0.005901
vt 0.859438 0.023379
vt 0.827687 0.051761
vt 0.799857 0.089957
vt 0.377191 0.492450
vt 0.687068 0.854906
vt 0.652616 0.720435
vt 0.652616 0.854616
vt 0.620865 0.728582
vt 0.620865 0.854146
vt 0.593035 0.734636
vt 0.593035 0.853513
vt 0.353616 0.537088
vt 0.443042 0.569030
vt 0.234367 0.595081
vt 0.249632 0.680575
vt 0.449452 0.494220
vt 0.758726 0.854906
vt 0.793178 0.720435
vt 0.758726 0.717992
vt 0.456408 0.413036
vt 0.722897 0.718435
vt 0.722897 0.855004
vt 0.687068 0.717992
vt 0.520960 0.504768
vt 0.503123 0.449955
vt 0.758726 0.618796
vt 0.483769 0.390470
vt 0.722897 0.614268
vt 0.299421 0.501545
vt 0.687068 0.618796
vt 0.652616 0.632205
vt 0.436057 0.650558
vt 0.558975 0.621360
vt 0.549435 0.592134
vt 0.437428 0.634555
vt 0.536599 0.552765
vt 0.360488 0.591388
vt 0.770575 0.051761
vt 0.799857 0.089957
vt 0.597916 0.023379
vt 0.631476 0.005901
vt 0.666886 0.000000
vt 0.702787 0.005901
vt 0.737799 0.023379
vt 0.593035 0.307134
vt 0.491796 0.000000
vt 0.172445 0.912258
vt 0.172445 0.673771
vt 1.000000 0.307134
vt 0.793178 0.854616
vt 0.793178 0.632205
vt 0.434210 0.672109
vn 0.1653 -0.2863 -0.9438
vn 0.1526 -0.4659 -0.8716
vn 0.1342 -0.6287 -0.7660
vn 0.1104 -0.7683 -0.6305
vn 0.0093 0.9985 -0.0532
vn 0.0205 -0.9929 -0.1172
vn 0.1653 0.2863 -0.9438
vn 0.0001 -1.0000 -0.0008
vn 0.1717 0.0966 -0.9804
vn 0.0009 1.0000 -0.0052
vn 0.0172 -0.9950 -0.0980
vn 0.1717 -0.0966 -0.9804
vn 0.0416 -0.9983 -0.0407
vn 0.9605 -0.0392 -0.2756
vn 0.8084 -0.4824 -0.3372
vn 0.5970 -0.6890 -0.4109
vn 0.4403 -0.8185 -0.3692
vn 0.0430 0.9983 -0.0402
vn 0.3121 -0.8995 -0.3058
vn 0.0291 0.9996 -0.0066
vn 0.0498 -0.9976 -0.0488
vn 0.9216 0.2585 -0.2895
vn 0.0004 -1.0000 -0.0003
vn 0.9560 0.1739 -0.2364
vn -0.0037 0.9999 -0.0162
vn 0.3121 -0.8995 0.3058
vn 0.0291 0.9996 0.0066
vn 0.0498 -0.9976 0.0488
vn 0.9216 0.2585 0.2895
vn 0.0004 -1.0000 0.0003
vn 0.9560 0.1739 0.2364
vn -0.0037 0.9999 0.0162
vn 0.0416 -0.9983 0.0407
vn 0.9605 -0.0392 0.2756
vn 0.8084 -0.4824 0.3372
vn 0.5970 -0.6890 0.4109
vn 0.4403 -0.8185 0.3692
vn 0.0430 0.9983 0.0402
vn 0.1653 -0.2863 0.9438
vn 0.1526 -0.4659 0.8716
vn 0.1342 -0.6287 0.7660
vn 0.1104 -0.7683 0.6305
vn 0.0093 0.9985 0.0532
vn 0.0205 -0.9929 0.1172
vn 0.1653 0.2863 0.9438
vn 0.0001 -1.0000 0.0008
vn 0.1717 0.0966 0.9804
vn 0.0009 1.0000 0.0052
vn 0.0172 -0.9950 0.0980
vn 0.1717 -0.0966 0.9804
vn -0.0093 0.9985 0.0532
vn -0.0205 -0.9929 0.1172
vn -0.1653 0.2863 0.9438
vn -0.0001 -1.0000 0.0008
vn -0.1717 0.0966 0.9804
vn -0.0009 1.0000 0.0052
vn -0.0172 -0.9950 0.0980
vn -0.1717 -0.0966 0.9804
vn -0.1653 -0.2863 0.9438
vn -0.1526 -0.4659 0.8716
vn -0.1342 -0.6287 0.7660
vn -0.1104 -0.7683 0.6305
vn -0.7807 -0.4815 0.3983
vn -0.6113 -0.6918 0.3844
vn -0.4179 -0.8111 0.4094
vn -0.3121 -0.8995 0.3058
vn -0.0358 0.9992 0.0182
vn -0.0498 -0.9976 0.0488
vn -0.9162 0.1731 0.3614
vn -0.0004 -1.0000 0.0003
vn -0.9342 0.1755 0.3105
vn -0.0048 1.0000 -0.0039
vn -0.0416 -0.9983 0.0407
vn -0.9298 0.0307 0.3668
vn -0.0498 -0.9976 -0.0488
vn -0.9162 0.1731 -0.3614
vn -0.0004 -1.0000 -0.0003
vn -0.9342 0.1755 -0.3105
vn -0.0048 1.0000 -0.0047
vn -0.0416 -0.9983 -0.0407
vn -0.9298 0.0307 -0.3668
vn -0.7807 -0.4815 -0.3983
vn -0.6113 -0.6918 -0.3844
vn -0.4179 -0.8111 -0.4094
vn -0.3121 -0.8995 -0.3058
vn -0.0358 0.9992 -0.0182
vn -0.1526 -0.4659 -0.8716
vn -0.1342 -0.6287 -0.7660
vn -0.1104 -0.7683 -0.6305
vn -0.0090 0.9987 -0.0511
vn -0.0205 -0.9929 -0.1172
vn -0.1653 0.2863 -0.9438
vn -0.0001 -1.0000 -0.0008
vn -0.1717 0.0966 -0.9804
vn -0.0046 1.0000 -0.0052
vn -0.0172 -0.9950 -0.0980
vn -0.1717 -0.0966 -0.9804
vn -0.1653 -0.2863 -0.9438
vn 0.9560 -0.1739 -0.2364
vn 0.9553 -0.1103 -0.2741
vn 0.9164 -0.1189 -0.3823
vn 0.5678 -0.7245 -0.3908
vn 0.3764 -0.8711 -0.3156
vn 0.8142 0.4824 -0.3232
vn 0.9527 -0.0530 -0.2992
vn 0.3764 -0.8711 0.3156
vn 0.8142 0.4824 0.3232
vn 0.9527 -0.0530 0.2992
vn 0.9560 -0.1739 0.2364
vn 0.9553 -0.1103 0.2741
vn 0.9164 -0.1189 0.3823
vn 0.5678 -0.7245 0.3908
vn -0.9162 -0.1731 0.3614
vn -0.7608 -0.5201 0.3882
vn -0.7600 -0.4405 0.4779
vn -0.0230 0.9995 0.0209
vn -0.7807 0.4815 0.3983
vn -0.9298 -0.0307 0.3668
vn -0.9342 -0.1755 0.3105
vn -0.7807 0.4815 -0.3983
vn -0.9298 -0.0307 -0.3668
vn -0.9342 -0.1755 -0.3105
vn -0.9162 -0.1731 -0.3614
vn -0.7608 -0.5201 -0.3882
vn -0.7600 -0.4405 -0.4779
vn -0.0216 0.9995 -0.0212
vn -0.0100 0.9985 -0.0532
s off
f 5/1/1 16/2/1 6/3/1
f 6/3/2 17/4/2 7/5/2
f 7/5/3 18/6/3 8/7/3
f 8/8/4 19/9/4 9/10/4
f 2/11/5 11/12/5 12/13/5
f 9/10/6 20/14/6 10/15/6
f 3/16/7 12/17/7 13/18/7
f 10/15/8 21/19/8 90/20/8
f 4/21/9 13/18/9 14/22/9
f 1/23/10 44/24/10 11/12/10
f 78/25/11 90/20/11 21/19/11
f 4/21/12 15/26/12 5/1/12
f 78/25/13 21/19/13 32/27/13
f 15/28/14 25/29/14 26/30/14
f 15/28/15 27/31/15 16/32/15
f 16/32/16 28/33/16 17/34/16
f 17/35/17 29/36/17 18/37/17
f 11/12/18 22/38/18 23/39/18
f 18/37/19 30/40/19 19/9/19
f 12/13/20 11/12/20 23/39/20
f 19/9/21 31/41/21 20/14/21
f 13/42/22 23/43/22 24/44/22
f 20/14/23 32/27/23 21/19/23
f 13/42/24 25/29/24 14/45/24
f 11/12/25 44/24/25 22/38/25
f 30/40/26 40/46/26 41/47/26
f 23/39/27 33/48/27 34/49/27
f 31/41/28 41/47/28 42/50/28
f 23/43/29 35/51/29 24/44/29
f 32/27/30 42/50/30 43/52/30
f 25/29/31 35/51/31 36/53/31
f 22/38/32 44/24/32 33/48/32
f 78/25/33 32/27/33 43/52/33
f 25/29/34 37/54/34 26/30/34
f 27/31/35 37/54/35 38/55/35
f 28/33/36 38/55/36 39/56/36
f 29/36/37 39/57/37 40/46/37
f 23/39/38 22/38/38 33/48/38
f 38/58/39 49/59/39 50/60/39
f 39/61/40 50/60/40 51/62/40
f 40/63/41 51/62/41 52/64/41
f 41/47/42 52/65/42 53/66/42
f 33/48/43 46/67/43 34/49/43
f 42/50/44 53/66/44 54/68/44
f 34/69/45 47/70/45 35/71/45
f 43/52/46 54/68/46 55/72/46
f 35/71/47 48/73/47 36/74/47
f 33/48/48 44/24/48 45/75/48
f 78/25/49 43/52/49 55/72/49
f 37/76/50 48/73/50 49/59/50
f 46/67/51 56/77/51 57/78/51
f 53/66/52 65/79/52 54/68/52
f 47/70/53 57/80/53 58/81/53
f 54/68/54 66/82/54 55/72/54
f 48/73/55 58/81/55 59/83/55
f 45/75/56 44/24/56 56/77/56
f 78/25/57 55/72/57 66/82/57
f 48/73/58 60/84/58 49/59/58
f 49/59/59 61/85/59 50/60/59
f 50/60/60 62/86/60 51/62/60
f 51/62/61 63/87/61 52/64/61
f 52/65/62 64/88/62 53/66/62
f 60/89/63 72/90/63 61/91/63
f 61/91/64 73/92/64 62/93/64
f 62/93/65 74/94/65 63/95/65
f 63/96/66 75/97/66 64/88/66
f 57/78/67 67/98/67 68/99/67
f 64/88/68 76/100/68 65/79/68
f 58/101/69 68/102/69 69/103/69
f 65/79/70 77/104/70 66/82/70
f 58/101/71 70/105/71 59/106/71
f 56/77/72 44/24/72 67/98/72
f 78/25/73 66/82/73 77/104/73
f 60/89/74 70/105/74 71/107/74
f 76/100/75 87/108/75 88/109/75
f 68/102/76 81/110/76 69/103/76
f 77/104/77 88/109/77 89/111/77
f 70/105/78 81/110/78 82/112/78
f 67/98/79 44/24/79 79/113/79
f 78/25/80 77/104/80 89/111/80
f 70/105/81 83/114/81 71/107/81
f 72/90/82 83/114/82 84/115/82
f 73/116/83 84/117/83 85/118/83
f 74/119/84 85/118/84 86/120/84
f 75/97/85 86/120/85 87/108/85
f 67/98/86 80/121/86 68/99/86
f 85/122/87 6/3/87 7/5/87
f 86/123/88 7/5/88 8/7/88
f 87/108/89 8/8/89 9/10/89
f 79/113/90 2/11/90 80/121/90
f 88/109/91 9/10/91 10/15/91
f 80/124/92 3/16/92 81/125/92
f 89/111/93 10/15/93 90/20/93
f 81/125/94 4/21/94 82/126/94
f 79/113/95 44/24/95 1/23/95
f 78/25/96 89/111/96 90/20/96
f 83/127/97 4/21/97 5/1/97
f 84/128/98 5/1/98 6/3/98
f 5/1/1 15/26/1 16/2/1
f 6/3/2 16/2/2 17/4/2
f 7/5/3 17/4/3 18/6/3
f 8/8/4 18/37/4 19/9/4
f 2/11/5 1/23/5 11/12/5
f 9/10/6 19/9/6 20/14/6
f 3/16/7 2/129/7 12/17/7
f 10/15/8 20/14/8 21/19/8
f 4/21/9 3/16/9 13/18/9
f 4/21/12 14/22/12 15/26/12
f 15/28/99 14/45/99 25/29/99
f 15/28/100 26/30/100 27/31/100
f 16/32/101 27/31/101 28/33/101
f 17/35/102 28/130/102 29/36/102
f 18/37/103 29/36/103 30/40/103
f 19/9/21 30/40/21 31/41/21
f 13/42/104 12/131/104 23/43/104
f 20/14/23 31/41/23 32/27/23
f 13/42/105 24/44/105 25/29/105
f 30/40/106 29/36/106 40/46/106
f 31/41/28 30/40/28 41/47/28
f 23/43/107 34/132/107 35/51/107
f 32/27/30 31/41/30 42/50/30
f 25/29/108 24/44/108 35/51/108
f 25/29/109 36/53/109 37/54/109
f 27/31/110 26/30/110 37/54/110
f 28/33/111 27/31/111 38/55/111
f 29/36/112 28/130/112 39/57/112
f 38/58/39 37/76/39 49/59/39
f 39/61/40 38/58/40 50/60/40
f 40/63/41 39/61/41 51/62/41
f 41/47/42 40/46/42 52/65/42
f 33/48/43 45/75/43 46/67/43
f 42/50/44 41/47/44 53/66/44
f 34/69/45 46/133/45 47/70/45
f 43/52/46 42/50/46 54/68/46
f 35/71/47 47/70/47 48/73/47
f 37/76/50 36/74/50 48/73/50
f 46/67/51 45/75/51 56/77/51
f 53/66/52 64/88/52 65/79/52
f 47/70/53 46/133/53 57/80/53
f 54/68/54 65/79/54 66/82/54
f 48/73/55 47/70/55 58/81/55
f 48/73/58 59/83/58 60/84/58
f 49/59/59 60/84/59 61/85/59
f 50/60/60 61/85/60 62/86/60
f 51/62/61 62/86/61 63/87/61
f 52/65/62 63/96/62 64/88/62
f 60/89/113 71/107/113 72/90/113
f 61/91/114 72/90/114 73/92/114
f 62/93/115 73/92/115 74/94/115
f 63/96/66 74/119/66 75/97/66
f 57/78/116 56/77/116 67/98/116
f 64/88/68 75/97/68 76/100/68
f 58/101/117 57/134/117 68/102/117
f 65/79/70 76/100/70 77/104/70
f 58/101/118 69/103/118 70/105/118
f 60/89/119 59/106/119 70/105/119
f 76/100/75 75/97/75 87/108/75
f 68/102/120 80/135/120 81/110/120
f 77/104/77 76/100/77 88/109/77
f 70/105/121 69/103/121 81/110/121
f 70/105/122 82/112/122 83/114/122
f 72/90/123 71/107/123 83/114/123
f 73/116/124 72/136/124 84/117/124
f 74/119/125 73/116/125 85/118/125
f 75/97/85 74/119/85 86/120/85
f 67/98/126 79/113/126 80/121/126
f 85/122/87 84/128/87 6/3/87
f 86/123/88 85/122/88 7/5/88
f 87/108/89 86/120/89 8/8/89
f 79/113/127 1/23/127 2/11/127
f 88/109/91 87/108/91 9/10/91
f 80/124/92 2/129/92 3/16/92
f 89/111/93 88/109/93 10/15/93
f 81/125/94 3/16/94 4/21/94
f 83/127/97 82/126/97 4/21/97
f 84/128/98 83/127/98 5/1/98
