# Blender v3.0.0 OBJ File: 'TV.blend'
# www.blender.org
o Cube
v 0.062331 2.557655 -3.522555
v 0.062331 -2.557655 -3.522555
v 0.062331 2.557655 3.522555
v 0.062331 -2.557655 3.522555
v -0.062331 2.557655 -3.522555
v -0.062331 -2.557655 -3.522555
v -0.062331 2.557655 3.522555
v -0.062331 -2.557655 3.522555
vt 0.756882 0.500000
vt 0.506882 0.750000
vt 0.506882 0.500000
vt 0.256882 1.000000
vt 0.256882 0.750000
vt 0.506882 0.000000
vt 0.256882 0.250000
vt 0.256882 0.000000
vt 0.256882 0.500000
vt 0.006882 0.750000
vt 0.006882 0.500000
vt 0.506882 0.250000
vt 0.756882 0.750000
vt 0.506882 1.000000
vn 0.0000 1.0000 0.0000
vn 0.0000 0.0000 1.0000
vn -1.0000 0.0000 0.0000
vn 0.0000 -1.0000 0.0000
vn 1.0000 0.0000 0.0000
vn 0.0000 0.0000 -1.0000
s off
f 5/1/1 3/2/1 1/3/1
f 3/2/2 8/4/2 4/5/2
f 7/6/3 6/7/3 8/8/3
f 2/9/4 8/10/4 6/11/4
f 1/3/5 4/5/5 2/9/5
f 5/12/6 2/9/6 6/7/6
f 5/1/1 7/13/1 3/2/1
f 3/2/2 7/14/2 8/4/2
f 7/6/3 5/12/3 6/7/3
f 2/9/4 4/5/4 8/10/4
f 1/3/5 3/2/5 4/5/5
f 5/12/6 1/3/6 2/9/6
o Cube.001
v 0.062717 -0.120291 1.000000
v 0.062717 1.000000 1.000000
v 0.062717 -0.120291 -1.000000
v 0.062717 1.000000 -1.000000
v 0.611310 -0.733608 1.000000
v 0.384205 0.000000 1.000000
v 0.611310 -0.733608 -1.000000
v 0.384205 0.000000 -1.000000
v 0.378128 -0.323877 -1.000000
v 0.384205 1.000000 -1.000000
v 0.378128 -0.323877 1.000000
v 0.384205 1.000000 1.000000
v 0.062717 0.000000 1.000000
v 0.062717 0.000000 -1.000000
v 0.617387 -0.161745 -1.000000
v 0.617387 -0.161745 1.000000
vt 0.879300 0.002794
vt 0.821132 0.119130
vt 0.821132 0.002794
vt 0.879300 0.235466
vt 0.821132 0.351802
vt 0.821132 0.235466
vt 0.879300 0.409970
vt 0.821132 0.468138
vt 0.821132 0.409970
vt 0.762964 0.235466
vt 0.704796 0.351802
vt 0.704796 0.235466
vt 0.995636 0.235466
vt 0.937468 0.351802
vt 0.937468 0.235466
vt 0.879300 0.351802
vt 0.646628 0.351802
vt 0.646628 0.235466
vt 0.879300 0.119130
vt 0.821132 0.177298
vt 0.762964 0.119130
vt 0.762964 0.177298
vt 0.762964 0.409970
vt 0.762964 0.351802
vt 0.762964 0.468138
vt 0.762964 0.002794
vt 0.879300 0.468138
vt 0.995636 0.351802
vt 0.879300 0.177298
vn -1.0000 0.0000 0.0000
vn 0.5700 0.8217 0.0000
vn 0.0000 0.0000 1.0000
vn -0.8691 -0.4946 0.0000
vn 0.0000 1.0000 0.0000
vn 1.0000 0.0000 0.0000
vn -0.5423 -0.8402 0.0000
vn 0.0000 0.0000 -1.0000
vn 0.9999 -0.0106 0.0000
s off
f 10/15/7 22/16/7 21/17/7
f 16/18/8 24/19/8 23/20/8
f 20/21/9 21/22/9 14/23/9
f 15/24/10 19/25/10 17/26/10
f 12/27/11 20/28/11 18/29/11
f 18/29/12 14/30/12 16/18/12
f 17/26/13 9/31/13 11/32/13
f 12/33/14 16/34/14 22/16/14
f 11/35/14 16/34/14 17/36/14
f 24/19/9 19/37/9 13/38/9
f 14/23/9 9/39/9 19/37/9
f 23/20/15 13/38/15 15/24/15
f 17/36/14 23/20/14 15/24/14
f 21/17/7 11/35/7 9/40/7
f 10/15/7 12/33/7 22/16/7
f 16/18/8 14/30/8 24/19/8
f 20/21/9 10/41/9 21/22/9
f 15/24/10 13/38/10 19/25/10
f 12/27/11 10/42/11 20/28/11
f 18/29/12 20/28/12 14/30/12
f 17/26/13 19/25/13 9/31/13
f 12/33/14 18/43/14 16/34/14
f 11/35/14 22/16/14 16/34/14
f 24/19/9 14/23/9 19/37/9
f 14/23/9 21/22/9 9/39/9
f 23/20/15 24/19/15 13/38/15
f 17/36/14 16/34/14 23/20/14
f 21/17/7 22/16/7 11/35/7
