# Blender v3.0.0 OBJ File: 'soap.blend'
# www.blender.org
o Cylinder
v -0.000000 0.012178 -1.000000
v -0.000000 2.012178 -1.000000
v 0.194856 0.012178 -0.951057
v 0.194856 2.012178 -0.951057
v 0.370638 0.012178 -0.809017
v 0.370638 2.012178 -0.809017
v 0.510140 0.012178 -0.587785
v 0.510140 2.012178 -0.587785
v 0.599705 0.012178 -0.309017
v 0.599705 2.012178 -0.309017
v 0.630567 0.012178 0.000000
v 0.630567 2.012178 0.000000
v 0.599705 0.012178 0.309017
v 0.599705 2.012178 0.309017
v 0.510140 0.012178 0.587785
v 0.510140 2.012178 0.587785
v 0.370638 0.012178 0.809017
v 0.370638 2.012178 0.809017
v 0.194856 0.012178 0.951056
v 0.194856 2.012178 0.951056
v -0.000000 0.012178 1.000000
v -0.000000 2.012178 1.000000
v -0.194856 0.012178 0.951057
v -0.194856 2.012178 0.951057
v -0.370638 0.012178 0.809017
v -0.370638 2.012178 0.809017
v -0.510140 0.012178 0.587785
v -0.510140 2.012178 0.587785
v -0.599705 0.012178 0.309017
v -0.599705 2.012178 0.309017
v -0.630567 0.012178 -0.000000
v -0.630567 2.012178 -0.000000
v -0.599705 0.012178 -0.309017
v -0.599705 2.012178 -0.309017
v -0.510140 0.012178 -0.587785
v -0.510140 2.012178 -0.587785
v -0.370638 0.012178 -0.809017
v -0.370638 2.012178 -0.809017
v -0.194856 0.012178 -0.951057
v -0.194856 2.012178 -0.951057
vt 0.654301 0.976390
vt 0.622074 0.654121
vt 0.654301 0.654121
vt 0.622074 0.976390
vt 0.589847 0.654121
vt 0.589847 0.976390
vt 0.557620 0.654121
vt 0.557620 0.976390
vt 0.525393 0.654121
vt 0.525393 0.976390
vt 0.493166 0.654121
vt 0.493166 0.976390
vt 0.460939 0.654121
vt 0.460939 0.976390
vt 0.428712 0.654121
vt 0.428712 0.976390
vt 0.396485 0.654121
vt 0.396485 0.976390
vt 0.364258 0.654121
vt 0.364258 0.976390
vt 0.332031 0.654121
vt 0.332031 0.976390
vt 0.299804 0.654121
vt 0.299804 0.976390
vt 0.267577 0.654121
vt 0.267577 0.976390
vt 0.235350 0.654121
vt 0.235350 0.976390
vt 0.203123 0.654121
vt 0.203123 0.976390
vt 0.170896 0.654121
vt 0.170896 0.976390
vt 0.138669 0.654121
vt 0.138669 0.976390
vt 0.106443 0.654121
vt 0.106443 0.976390
vt 0.074216 0.654121
vt 0.318015 0.540788
vt 0.296043 0.583910
vt 0.023778 0.540788
vt 0.074216 0.976390
vt 0.041989 0.654121
vt 0.041989 0.976390
vt 0.009762 0.654121
vt 0.368020 0.583910
vt 0.402242 0.618133
vt 0.618312 0.583910
vt 0.261821 0.618133
vt 0.218698 0.640105
vt 0.123095 0.640105
vt 0.170897 0.647676
vt 0.079972 0.618133
vt 0.045750 0.583910
vt 0.016207 0.492986
vt 0.023778 0.445185
vt 0.325586 0.492986
vt 0.045750 0.402062
vt 0.318015 0.445185
vt 0.079972 0.367840
vt 0.296043 0.402062
vt 0.123095 0.345868
vt 0.261821 0.367840
vt 0.170896 0.338297
vt 0.218698 0.345868
vt 0.009762 0.976390
vt 0.445364 0.640105
vt 0.493166 0.647676
vt 0.540968 0.640105
vt 0.584090 0.618133
vt 0.640284 0.540788
vt 0.346048 0.540788
vt 0.647855 0.492986
vt 0.338477 0.492986
vt 0.640284 0.445185
vt 0.618312 0.402062
vt 0.346048 0.445185
vt 0.584090 0.367840
vt 0.402242 0.367840
vt 0.540968 0.345868
vt 0.445364 0.345868
vt 0.493166 0.338297
vt 0.368020 0.402062
vn 0.2436 0.0000 -0.9699
vn 0.6285 0.0000 -0.7778
vn 0.8459 0.0000 -0.5334
vn 0.9521 0.0000 -0.3059
vn 0.9950 0.0000 -0.0994
vn 0.9950 0.0000 0.0994
vn 0.9521 0.0000 0.3059
vn 0.8459 0.0000 0.5334
vn 0.6285 0.0000 0.7778
vn 0.2436 0.0000 0.9699
vn -0.2436 0.0000 0.9699
vn -0.6285 0.0000 0.7778
vn -0.8459 0.0000 0.5334
vn -0.9521 0.0000 0.3059
vn -0.9950 0.0000 0.0994
vn -0.9950 0.0000 -0.0994
vn -0.9521 0.0000 -0.3059
vn -0.8459 0.0000 -0.5334
vn 0.0000 1.0000 0.0000
vn -0.6285 0.0000 -0.7778
vn -0.2436 0.0000 -0.9699
vn 0.0000 -1.0000 0.0000
s off
f 2/1/1 3/2/1 1/3/1
f 4/4/2 5/5/2 3/2/2
f 6/6/3 7/7/3 5/5/3
f 8/8/4 9/9/4 7/7/4
f 10/10/5 11/11/5 9/9/5
f 12/12/6 13/13/6 11/11/6
f 14/14/7 15/15/7 13/13/7
f 16/16/8 17/17/8 15/15/8
f 18/18/9 19/19/9 17/17/9
f 20/20/10 21/21/10 19/19/10
f 22/22/11 23/23/11 21/21/11
f 24/24/12 25/25/12 23/23/12
f 26/26/13 27/27/13 25/25/13
f 28/28/14 29/29/14 27/27/14
f 30/30/15 31/31/15 29/29/15
f 32/32/16 33/33/16 31/31/16
f 34/34/17 35/35/17 33/33/17
f 36/36/18 37/37/18 35/35/18
f 10/38/19 8/39/19 34/40/19
f 38/41/20 39/42/20 37/37/20
f 40/43/21 1/44/21 39/42/21
f 35/45/22 37/46/22 7/47/22
f 2/1/1 4/4/1 3/2/1
f 4/4/2 6/6/2 5/5/2
f 6/6/3 8/8/3 7/7/3
f 8/8/4 10/10/4 9/9/4
f 10/10/5 12/12/5 11/11/5
f 12/12/6 14/14/6 13/13/6
f 14/14/7 16/16/7 15/15/7
f 16/16/8 18/18/8 17/17/8
f 18/18/9 20/20/9 19/19/9
f 20/20/10 22/22/10 21/21/10
f 22/22/11 24/24/11 23/23/11
f 24/24/12 26/26/12 25/25/12
f 26/26/13 28/28/13 27/27/13
f 28/28/14 30/30/14 29/29/14
f 30/30/15 32/32/15 31/31/15
f 32/32/16 34/34/16 33/33/16
f 34/34/17 36/36/17 35/35/17
f 36/36/18 38/41/18 37/37/18
f 6/48/19 4/49/19 40/50/19
f 4/49/19 2/51/19 40/50/19
f 40/50/19 38/52/19 6/48/19
f 38/52/19 36/53/19 6/48/19
f 36/53/19 34/40/19 8/39/19
f 6/48/19 36/53/19 8/39/19
f 34/40/19 32/54/19 10/38/19
f 32/54/19 30/55/19 12/56/19
f 10/38/19 32/54/19 12/56/19
f 30/55/19 28/57/19 14/58/19
f 28/57/19 26/59/19 16/60/19
f 14/58/19 28/57/19 16/60/19
f 26/59/19 24/61/19 18/62/19
f 24/61/19 22/63/19 20/64/19
f 18/62/19 24/61/19 20/64/19
f 18/62/19 16/60/19 26/59/19
f 14/58/19 12/56/19 30/55/19
f 38/41/20 40/43/20 39/42/20
f 40/43/21 2/65/21 1/44/21
f 39/66/22 1/67/22 3/68/22
f 3/68/22 5/69/22 39/66/22
f 5/69/22 7/47/22 37/46/22
f 39/66/22 5/69/22 37/46/22
f 7/47/22 9/70/22 33/71/22
f 9/70/22 11/72/22 31/73/22
f 11/72/22 13/74/22 31/73/22
f 13/74/22 15/75/22 29/76/22
f 31/73/22 13/74/22 29/76/22
f 15/75/22 17/77/22 25/78/22
f 17/77/22 19/79/22 23/80/22
f 19/79/22 21/81/22 23/80/22
f 23/80/22 25/78/22 17/77/22
f 25/78/22 27/82/22 15/75/22
f 27/82/22 29/76/22 15/75/22
f 31/73/22 33/71/22 9/70/22
f 33/71/22 35/45/22 7/47/22
o Cylinder.001
v -0.005149 1.001573 -0.106681
v -0.005149 3.213374 -0.106681
v 0.057556 1.001573 -0.086307
v 0.057556 3.213374 -0.086307
v 0.096310 1.001573 -0.032966
v 0.096310 3.213374 -0.032966
v 0.096310 1.001573 0.032966
v 0.096310 3.213374 0.032966
v 0.057556 1.001573 0.086307
v 0.057556 3.213374 0.086307
v -0.005149 1.001573 0.106681
v -0.005149 3.213374 0.106681
v -0.067854 1.001573 0.086307
v -0.067854 3.213374 0.086307
v -0.106608 1.001573 0.032966
v -0.106608 3.213374 0.032966
v -0.106608 1.001573 -0.032966
v -0.106608 3.213374 -0.032966
v -0.067854 1.001573 -0.086307
v -0.067854 3.213374 -0.086307
v -0.005149 2.973330 -0.106681
v 0.057556 2.973330 -0.086307
v 0.096310 2.973330 -0.032966
v 0.096310 2.973330 0.032966
v 0.057556 2.973330 0.086307
v -0.005149 2.973330 0.106681
v -0.067854 2.973330 0.086307
v -0.106608 2.973330 0.032966
v -0.106608 2.973330 -0.032966
v -0.067854 2.973330 -0.086307
v 0.057556 2.804950 -0.086307
v 0.096310 2.804950 -0.032966
v 0.096310 2.804950 0.032966
v 0.057556 2.804950 0.086307
v -0.005149 2.804950 0.106681
v -0.067854 2.804950 0.086307
v -0.106608 2.804950 0.032966
v -0.106608 2.804950 -0.032966
v -0.067854 2.804950 -0.086307
v -0.005149 2.804950 -0.106681
v -1.400711 3.026072 -0.032966
v -1.254355 3.017005 -0.074046
v -1.400711 3.026072 0.032966
v -1.254355 3.017005 0.074046
v -1.254355 2.872545 0.074046
v -1.400711 2.857691 0.032966
v -1.400711 2.857691 -0.032966
v -1.254355 2.872545 -0.074046
v -0.540107 2.880314 -0.032966
v -0.540107 2.880314 0.032966
v -0.540107 3.048695 0.032966
v -0.516010 3.036415 0.074046
v -0.516010 3.036415 -0.074046
v -0.540107 3.048695 -0.032966
v -0.516010 2.891955 -0.074046
v -0.516010 2.891955 0.074046
v -1.146308 2.885443 0.032966
v -1.146308 3.053824 0.032966
v -1.036093 3.040815 -0.074046
v -1.036093 2.896355 0.074046
v -1.146308 2.885443 -0.032966
v -1.036093 3.040815 0.074046
v -1.146308 3.053824 -0.032966
v -1.036093 2.896355 -0.074046
v -0.877254 2.888802 -0.032966
v -0.805261 3.043697 0.074046
v -0.877254 3.057183 -0.032966
v -0.805261 2.899237 -0.074046
v -0.877254 2.888802 0.032966
v -0.877254 3.057183 0.032966
v -0.805261 3.043697 -0.074046
v -0.805261 2.899237 0.074046
vt 0.618803 0.366055
vt 0.640051 0.387302
vt 0.640051 0.366055
vt 0.970745 0.014113
vt 0.991993 0.035360
vt 0.991993 0.014113
vt 0.948749 0.344058
vt 0.969997 0.365306
vt 0.969997 0.344058
vt 0.926752 0.344058
vt 0.948000 0.365306
vt 0.948000 0.344058
vt 0.948749 0.322062
vt 0.969997 0.343310
vt 0.969997 0.322062
vt 0.904756 0.344058
vt 0.926004 0.365306
vt 0.926004 0.344058
vt 0.882760 0.344058
vt 0.904007 0.365306
vt 0.904007 0.344058
vt 0.948749 0.256073
vt 0.969997 0.277320
vt 0.969997 0.256073
vt 0.618803 0.132238
vt 0.662422 0.102098
vt 0.689379 0.181005
vt 0.948749 0.234076
vt 0.969997 0.255324
vt 0.969997 0.234076
vt 0.969997 0.212080
vt 0.948749 0.233328
vt 0.969997 0.233328
vt 0.635464 0.093019
vt 0.662422 0.014113
vt 0.706040 0.044252
vt 0.948749 0.190084
vt 0.969997 0.211331
vt 0.969997 0.190084
vt 0.794026 0.014113
vt 0.750781 0.101349
vt 0.794026 0.101349
vt 0.794026 0.102098
vt 0.706789 0.145342
vt 0.794026 0.145342
vt 0.882011 0.014113
vt 0.860763 0.101349
vt 0.882011 0.101349
vt 0.948749 0.168087
vt 0.969997 0.189335
vt 0.969997 0.168087
vt 0.948749 0.146091
vt 0.969997 0.167339
vt 0.969997 0.146091
vt 0.948749 0.124094
vt 0.969997 0.145342
vt 0.969997 0.124094
vt 0.948749 0.102098
vt 0.969997 0.123346
vt 0.969997 0.102098
vt 0.926752 0.322062
vt 0.948000 0.343310
vt 0.948000 0.322062
vt 0.904756 0.322062
vt 0.926004 0.343310
vt 0.926004 0.322062
vt 0.882011 0.299317
vt 0.794774 0.278069
vt 0.794774 0.299317
vt 0.860015 0.190084
vt 0.838767 0.277320
vt 0.860015 0.277320
vt 0.706040 0.321313
vt 0.618803 0.300066
vt 0.618803 0.321313
vt 0.882011 0.190084
vt 0.860763 0.277320
vt 0.882011 0.277320
vt 0.706789 0.321313
vt 0.794026 0.300066
vt 0.706789 0.300066
vt 0.904007 0.014113
vt 0.882760 0.101349
vt 0.904007 0.101349
vt 0.882011 0.321313
vt 0.794774 0.300066
vt 0.794774 0.321313
vt 0.904007 0.102098
vt 0.882760 0.189335
vt 0.904007 0.189335
vt 0.706040 0.343310
vt 0.618803 0.322062
vt 0.618803 0.343310
vt 0.904007 0.190084
vt 0.882760 0.277320
vt 0.904007 0.277320
vt 0.882011 0.322062
vt 0.794774 0.343310
vt 0.882011 0.343310
vt 0.882760 0.322062
vt 0.904007 0.343310
vt 0.904007 0.322062
vt 0.926004 0.102098
vt 0.904756 0.189335
vt 0.926004 0.189335
vt 0.706040 0.190084
vt 0.618803 0.233328
vt 0.706040 0.233328
vt 0.838018 0.102098
vt 0.794774 0.189335
vt 0.838018 0.189335
vt 0.706040 0.365306
vt 0.618803 0.344058
vt 0.618803 0.365306
vt 0.926752 0.014113
vt 0.948000 0.101349
vt 0.948000 0.014113
vt 0.794026 0.344058
vt 0.706789 0.365306
vt 0.794026 0.365306
vt 0.948000 0.102098
vt 0.926752 0.189335
vt 0.948000 0.189335
vt 0.882011 0.344058
vt 0.794774 0.365306
vt 0.882011 0.365306
vt 0.926752 0.190084
vt 0.948000 0.277320
vt 0.948000 0.190084
vt 0.969997 0.299317
vt 0.882760 0.278069
vt 0.882760 0.299317
vt 0.948749 0.014113
vt 0.969997 0.101349
vt 0.969997 0.014113
vt 0.969997 0.300066
vt 0.882760 0.321313
vt 0.969997 0.321313
vt 0.904756 0.014113
vt 0.926004 0.101349
vt 0.926004 0.014113
vt 0.794026 0.299317
vt 0.706789 0.278069
vt 0.706789 0.299317
vt 0.816771 0.190084
vt 0.838018 0.277320
vt 0.838018 0.190084
vt 0.706040 0.278069
vt 0.618803 0.299317
vt 0.706040 0.299317
vt 0.926004 0.190084
vt 0.904756 0.277320
vt 0.926004 0.277320
vt 0.794026 0.189335
vt 0.706789 0.146091
vt 0.706789 0.189335
vt 0.706789 0.014113
vt 0.750033 0.101349
vt 0.750033 0.014113
vt 0.794026 0.255324
vt 0.706789 0.234076
vt 0.706789 0.255324
vt 0.794774 0.014113
vt 0.838018 0.101349
vt 0.838018 0.014113
vt 0.794026 0.233328
vt 0.706789 0.190084
vt 0.706789 0.233328
vt 0.860015 0.014113
vt 0.838767 0.101349
vt 0.860015 0.101349
vt 0.706040 0.234076
vt 0.618803 0.255324
vt 0.706040 0.255324
vt 0.860015 0.102098
vt 0.838767 0.189335
vt 0.860015 0.189335
vt 0.706040 0.256073
vt 0.618803 0.277320
vt 0.706040 0.277320
vt 0.882011 0.102098
vt 0.860763 0.189335
vt 0.882011 0.189335
vt 0.794026 0.256073
vt 0.706789 0.277320
vt 0.794026 0.277320
vt 0.794774 0.190084
vt 0.816022 0.277320
vt 0.816022 0.190084
vt 0.794026 0.343310
vt 0.706789 0.322062
vt 0.706789 0.343310
vt 0.618803 0.387302
vt 0.970745 0.035360
vt 0.948749 0.365306
vt 0.926752 0.365306
vt 0.948749 0.343310
vt 0.904756 0.365306
vt 0.882760 0.365306
vt 0.948749 0.277320
vt 0.635464 0.181005
vt 0.618803 0.159195
vt 0.635464 0.110428
vt 0.689379 0.110428
vt 0.706040 0.132238
vt 0.706040 0.159195
vt 0.662422 0.189335
vt 0.948749 0.255324
vt 0.948749 0.212080
vt 0.706040 0.071210
vt 0.689379 0.093019
vt 0.662422 0.101349
vt 0.618803 0.071210
vt 0.618803 0.044252
vt 0.635464 0.022443
vt 0.689379 0.022443
vt 0.948749 0.211331
vt 0.750781 0.014113
vt 0.706789 0.102098
vt 0.860763 0.014113
vt 0.948749 0.189335
vt 0.948749 0.167339
vt 0.948749 0.145342
vt 0.948749 0.123346
vt 0.926752 0.343310
vt 0.904756 0.343310
vt 0.882011 0.278069
vt 0.838767 0.190084
vt 0.706040 0.300066
vt 0.860763 0.190084
vt 0.794026 0.321313
vt 0.882760 0.014113
vt 0.882011 0.300066
vt 0.882760 0.102098
vt 0.706040 0.322062
vt 0.882760 0.190084
vt 0.794774 0.322062
vt 0.882760 0.343310
vt 0.904756 0.102098
vt 0.618803 0.190084
vt 0.794774 0.102098
vt 0.706040 0.344058
vt 0.926752 0.101349
vt 0.706789 0.344058
vt 0.926752 0.102098
vt 0.794774 0.344058
vt 0.926752 0.277320
vt 0.969997 0.278069
vt 0.948749 0.101349
vt 0.882760 0.300066
vt 0.904756 0.101349
vt 0.794026 0.278069
vt 0.816771 0.277320
vt 0.618803 0.278069
vt 0.904756 0.190084
vt 0.794026 0.146091
vt 0.706789 0.101349
vt 0.794026 0.234076
vt 0.794774 0.101349
vt 0.794026 0.190084
vt 0.838767 0.014113
vt 0.618803 0.234076
vt 0.838767 0.102098
vt 0.618803 0.256073
vt 0.860763 0.102098
vt 0.706789 0.256073
vt 0.794774 0.277320
vt 0.794026 0.322062
vn 0.3090 0.0000 -0.9511
vn 0.8090 0.0000 -0.5878
vn 1.0000 -0.0000 0.0000
vn 0.8090 0.0000 0.5878
vn 0.3090 0.0000 0.9511
vn -0.3090 -0.0000 0.9511
vn -0.8090 -0.0000 0.5878
vn -1.0000 0.0000 0.0000
vn 0.0000 1.0000 0.0000
vn -0.8090 0.0000 -0.5878
vn -0.3090 0.0000 -0.9511
vn 0.0000 -1.0000 -0.0000
vn -0.0928 0.8503 -0.5181
vn -0.0928 0.8503 0.5181
vn 0.1084 -0.9941 0.0000
vn -0.2702 0.0000 -0.9628
vn -0.2702 0.0000 0.9628
vn 0.1084 -0.9937 0.0269
vn 0.1084 -0.9937 -0.0269
vn -0.0000 0.0000 1.0000
vn -0.1084 0.9941 0.0000
vn 0.0000 0.0000 -1.0000
vn -0.0273 0.0000 -0.9996
vn 0.1713 0.9852 0.0000
vn -0.0273 0.0000 0.9996
vn -0.1601 -0.9211 0.3549
vn -0.1924 -0.9713 -0.1398
vn -0.1713 -0.9852 0.0000
vn 0.1414 0.9846 -0.1027
vn 0.1681 0.9672 -0.1905
vn -0.0125 0.9999 0.0000
vn 0.0122 -0.9740 0.2261
vn 0.0122 -0.9740 -0.2261
vn 0.0125 -0.9999 0.0000
vn -0.0118 0.9437 0.3305
vn -0.0118 0.9437 -0.3305
vn 0.0242 0.9616 -0.2733
vn 0.0242 0.9616 0.2733
vn -0.0252 -0.9997 -0.0000
vn -0.0241 -0.9580 -0.2856
vn -0.0241 -0.9580 0.2856
vn 0.0252 0.9997 0.0000
vn -0.1924 -0.9713 0.1398
vn -0.1601 -0.9211 -0.3549
vn 0.1681 0.9672 0.1905
vn 0.1414 0.9846 0.1027
s off
f 42/83/23 62/84/23 61/85/23
f 44/86/24 63/87/24 62/88/24
f 46/89/25 64/90/25 63/91/25
f 48/92/26 65/93/26 64/94/26
f 50/95/27 66/96/27 65/97/27
f 52/98/28 67/99/28 66/100/28
f 54/101/29 68/102/29 67/103/29
f 56/104/30 69/105/30 68/106/30
f 42/107/31 58/108/31 50/109/31
f 58/110/32 70/111/32 69/112/32
f 70/113/33 42/114/33 61/115/33
f 47/116/34 55/117/34 59/118/34
f 70/119/33 80/120/33 79/121/33
f 103/122/35 82/123/35 81/124/35
f 98/125/36 84/126/36 102/127/36
f 101/128/37 86/129/37 87/130/37
f 66/131/28 76/132/28 75/133/28
f 65/134/27 75/135/27 74/136/27
f 64/137/26 74/138/26 73/139/26
f 63/140/25 73/141/25 72/142/25
f 62/143/24 72/144/24 71/145/24
f 61/146/23 71/147/23 80/148/23
f 80/149/23 43/150/23 41/151/23
f 71/152/24 45/153/24 43/154/24
f 72/155/25 47/156/25 45/157/25
f 73/158/26 49/159/26 47/160/26
f 49/161/27 75/162/27 51/163/27
f 75/164/28 53/165/28 51/166/28
f 76/167/29 55/168/29 53/169/29
f 77/170/30 57/171/30 55/172/30
f 78/173/32 59/174/32 57/175/32
f 79/176/33 41/177/33 59/178/33
f 81/179/38 88/180/38 87/181/38
f 83/182/30 87/183/30 86/184/30
f 85/185/39 83/186/39 86/187/39
f 101/188/40 88/189/40 104/190/40
f 97/191/41 85/192/41 86/193/41
f 100/194/42 84/195/42 85/196/42
f 103/197/43 83/198/43 98/199/43
f 104/200/44 82/201/44 99/202/44
f 70/203/45 95/204/45 93/205/45
f 69/206/46 91/207/46 68/208/46
f 67/209/47 96/210/47 76/211/47
f 77/212/48 96/213/48 90/214/48
f 78/215/49 95/216/49 79/217/49
f 77/218/50 89/219/50 78/220/50
f 68/221/51 92/222/51 67/223/51
f 69/224/52 93/225/52 94/226/52
f 108/227/44 99/228/44 111/229/44
f 107/230/53 98/231/53 110/232/53
f 112/233/42 102/234/42 100/235/42
f 109/236/54 100/237/54 97/238/54
f 105/239/55 104/240/55 108/241/55
f 105/242/56 97/243/56 101/244/56
f 110/245/57 102/246/57 106/247/57
f 107/248/58 99/249/58 103/250/58
f 94/251/59 111/252/59 107/253/59
f 91/254/60 106/255/60 92/256/60
f 89/257/61 109/258/61 105/259/61
f 89/260/62 108/261/62 95/262/62
f 90/263/63 112/264/63 109/265/63
f 92/266/42 112/267/42 96/268/42
f 94/269/64 110/270/64 91/271/64
f 93/272/44 108/273/44 111/274/44
f 42/83/23 44/275/23 62/84/23
f 44/86/24 46/276/24 63/87/24
f 46/89/25 48/277/25 64/90/25
f 48/92/26 50/278/26 65/93/26
f 50/95/27 52/279/27 66/96/27
f 52/98/28 54/280/28 67/99/28
f 54/101/29 56/281/29 68/102/29
f 56/104/30 58/282/30 69/105/30
f 46/283/31 44/284/31 42/107/31
f 42/107/31 60/285/31 58/108/31
f 58/108/31 56/286/31 54/287/31
f 54/287/31 52/288/31 58/108/31
f 52/288/31 50/109/31 58/108/31
f 50/109/31 48/289/31 46/283/31
f 46/283/31 42/107/31 50/109/31
f 58/110/32 60/290/32 70/111/32
f 70/113/33 60/291/33 42/114/33
f 59/118/34 41/292/34 43/293/34
f 43/293/34 45/294/34 59/118/34
f 45/294/34 47/116/34 59/118/34
f 47/116/34 49/295/34 51/296/34
f 51/296/34 53/297/34 55/117/34
f 55/117/34 57/298/34 59/118/34
f 47/116/34 51/296/34 55/117/34
f 70/119/33 61/299/33 80/120/33
f 103/122/35 99/300/35 82/123/35
f 98/125/36 83/301/36 84/126/36
f 101/128/37 97/302/37 86/129/37
f 66/131/28 67/303/28 76/132/28
f 65/134/27 66/304/27 75/135/27
f 64/137/26 65/305/26 74/138/26
f 63/140/25 64/306/25 73/141/25
f 62/143/24 63/307/24 72/144/24
f 61/146/23 62/308/23 71/147/23
f 80/149/23 71/309/23 43/150/23
f 71/152/24 72/310/24 45/153/24
f 72/155/25 73/311/25 47/156/25
f 73/158/26 74/312/26 49/159/26
f 49/161/27 74/313/27 75/162/27
f 75/164/28 76/314/28 53/165/28
f 76/167/29 77/315/29 55/168/29
f 77/170/30 78/316/30 57/171/30
f 78/173/32 79/317/32 59/174/32
f 79/176/33 80/318/33 41/177/33
f 81/179/38 82/319/38 88/180/38
f 83/182/30 81/320/30 87/183/30
f 85/185/39 84/321/39 83/186/39
f 101/188/40 87/322/40 88/189/40
f 97/191/41 100/323/41 85/192/41
f 100/194/42 102/324/42 84/195/42
f 103/197/43 81/325/43 83/198/43
f 104/200/44 88/326/44 82/201/44
f 70/203/45 79/327/45 95/204/45
f 69/206/46 94/328/46 91/207/46
f 67/209/47 92/329/47 96/210/47
f 77/212/65 76/330/65 96/213/65
f 78/215/66 89/331/66 95/216/66
f 77/218/50 90/332/50 89/219/50
f 68/221/67 91/333/67 92/222/67
f 69/224/68 70/334/68 93/225/68
f 108/227/44 104/335/44 99/228/44
f 107/230/53 103/336/53 98/231/53
f 112/233/42 106/337/42 102/234/42
f 109/236/54 112/338/54 100/237/54
f 105/239/55 101/339/55 104/240/55
f 105/242/56 109/340/56 97/243/56
f 110/245/57 98/341/57 102/246/57
f 107/248/58 111/342/58 99/249/58
f 94/251/59 93/343/59 111/252/59
f 91/254/60 110/344/60 106/255/60
f 89/257/61 90/345/61 109/258/61
f 89/260/62 105/346/62 108/261/62
f 90/263/63 96/347/63 112/264/63
f 92/266/42 106/348/42 112/267/42
f 94/269/64 107/349/64 110/270/64
f 93/272/44 95/350/44 108/273/44
