# Blender v3.0.0 OBJ File: 'brain.blend'
# www.blender.org
o Icosphere
v 0.022302 -0.054809 0.016256
v 0.817263 0.020156 0.593769
v -0.312161 0.020155 0.960748
v -1.010191 0.020160 0.000000
v -0.312161 0.020155 -0.960748
v 0.817263 0.020156 -0.593769
v 0.312161 0.426767 0.793420
v -0.684873 0.447220 0.672537
v -0.639904 0.447220 -0.704316
v 0.108817 0.447220 -0.901858
v 0.895707 0.447216 0.195671
v 0.000000 0.793822 -0.027828
v -0.161180 -0.032664 0.580965
v 0.502674 -0.032664 0.365262
v 0.296892 -0.058362 0.913721
v 0.960746 -0.058361 0.000000
v 0.502674 -0.032664 -0.332751
v -0.571472 -0.032661 0.016256
v -0.777261 -0.058361 0.564711
v -0.161180 -0.032664 -0.548453
v -0.777261 -0.058361 -0.564711
v 0.296892 -0.058362 -0.913721
v 1.074152 0.000000 0.349008
v 1.074152 0.000000 -0.349008
v 0.000000 0.000000 1.129429
v 0.663862 0.000000 0.913727
v -1.074152 0.000000 0.349008
v -0.663862 0.000000 0.913727
v -0.663862 0.000000 -0.913727
v -1.074152 0.000000 -0.349008
v 0.663862 0.000000 -0.913727
v 0.000000 0.000000 -1.129429
v 0.599058 0.525736 0.684505
v 0.013740 0.494136 0.861011
v -0.960746 0.525736 0.000000
v -0.296892 0.502909 -0.636640
v 0.777261 0.525736 -0.564711
v 0.183482 0.713402 0.403890
v 0.458543 0.850652 0.067165
v -0.480372 0.850654 0.349006
v -0.331821 0.850654 -0.404725
v 0.183482 0.850654 -0.564709
vt 0.181819 0.000000
vt 0.227273 0.078731
vt 0.136365 0.078731
vt 0.272728 0.157461
vt 0.318182 0.078731
vt 0.363637 0.157461
vt 0.909091 0.000000
vt 0.954545 0.078731
vt 0.863636 0.078731
vt 0.727273 0.000000
vt 0.772727 0.078731
vt 0.681818 0.078731
vt 0.545455 0.000000
vt 0.590909 0.078731
vt 0.500000 0.078731
vt 0.318182 0.236191
vt 0.090910 0.157461
vt 0.181819 0.157461
vt 0.136365 0.236191
vt 0.818182 0.157461
vt 0.909091 0.157461
vt 0.863636 0.236191
vt 0.636364 0.157461
vt 0.727273 0.157461
vt 0.681818 0.236191
vt 0.454546 0.157461
vt 0.545455 0.157461
vt 0.500000 0.236191
vt 0.227273 0.236191
vt 0.045455 0.236191
vt 0.772727 0.236191
vt 0.590909 0.236191
vt 0.409092 0.236191
vt 0.181819 0.314921
vt 0.272728 0.314921
vt 0.227273 0.393651
vt 0.000000 0.314921
vt 0.090910 0.314921
vt 0.045455 0.393651
vt 0.727273 0.314921
vt 0.818182 0.314921
vt 0.772727 0.393651
vt 0.545455 0.314921
vt 0.636364 0.314921
vt 0.590909 0.393651
vt 0.363637 0.314921
vt 0.454546 0.314921
vt 0.409092 0.393651
vt 0.500000 0.393651
vt 0.454546 0.472382
vt 0.681818 0.393651
vt 0.636364 0.472382
vt 0.863636 0.393651
vt 0.818182 0.472382
vt 0.909091 0.314921
vt 0.136365 0.393651
vt 0.090910 0.472382
vt 0.318182 0.393651
vt 0.272728 0.472382
vt 0.954545 0.236191
vt 1.000000 0.157461
vt 0.409092 0.078731
vt 0.363637 0.000000
vn 0.0142 -0.9989 0.0438
vn 0.0604 -0.9876 0.1452
vn -0.0373 -0.9989 0.0271
vn -0.0373 -0.9989 -0.0271
vn 0.0142 -0.9989 -0.0438
vn 0.0610 -0.9875 0.1453
vn -0.1194 -0.9875 0.1029
vn -0.1347 -0.9875 -0.0817
vn 0.0361 -0.9875 -0.1534
vn 0.1571 -0.9875 -0.0131
vn -0.2432 -0.9538 -0.1767
vn 0.0929 -0.9538 -0.2858
vn 0.3006 -0.9537 0.0000
vn 0.0929 -0.9538 0.2858
vn -0.2432 -0.9538 0.1767
vn -0.0465 0.7972 0.6020
vn -0.2336 0.6776 0.6973
vn -0.5986 0.7191 -0.3529
vn -0.3588 0.6368 -0.6825
vn 0.6828 0.7300 -0.0310
vn -0.1347 0.9891 0.0587
vn 0.4699 0.8587 -0.2045
vn 0.3140 0.5739 -0.7563
vn 0.0365 0.9924 0.1175
vn -0.2534 0.5190 -0.8163
vn 0.0724 0.5584 -0.8264
vn 0.1385 0.9900 0.0273
vn -0.5067 0.8563 -0.0999
vn -0.6870 0.6336 0.3558
vn 0.1936 0.9760 0.0995
vn 0.1412 0.8711 0.4703
vn 0.2969 0.8133 0.5004
vn -0.1699 0.9533 0.2498
vn 0.1011 0.8897 0.4452
vn 0.6149 0.7469 0.2532
vn 0.8826 0.4615 -0.0898
vn 0.7908 0.2109 -0.5746
vn 0.3553 0.4626 -0.8123
vn -0.4287 0.4904 -0.7588
vn -0.2473 0.5997 -0.7610
vn 0.1104 0.4166 -0.9024
vn -0.7952 0.4450 -0.4119
vn -0.9775 0.2109 0.0000
vn -0.8158 0.4316 0.3850
vn -0.2607 0.4487 0.8548
vn -0.2736 0.4650 0.8420
vn 0.2927 0.4501 0.8436
vn 0.1957 0.4121 0.8899
vn 0.7622 0.3354 0.5537
vn 0.7916 0.4555 0.4072
vn 0.2860 0.3784 -0.8803
vn 0.1414 -0.8892 -0.4352
vn -0.1194 -0.9875 -0.1029
vn -0.7708 0.3035 -0.5601
vn -0.3702 -0.8892 -0.2690
vn -0.1347 -0.9875 0.0817
vn -0.7793 0.2687 0.5662
vn -0.3702 -0.8892 0.2690
vn 0.0361 -0.9875 0.1534
vn 0.2739 0.4633 0.8428
vn 0.1414 -0.8892 0.4352
vn 0.1571 -0.9875 0.0131
vn 0.9288 0.3706 0.0000
vn 0.4576 -0.8892 0.0000
vn 0.0610 -0.9875 -0.1453
vn 0.1562 -0.9877 -0.0116
vn -0.0162 -0.9986 0.0499
vn -0.1212 -0.9892 -0.0824
vn 0.0450 -0.9887 -0.1431
vn 0.0409 -0.9987 0.0297
vn -0.1223 -0.9887 0.0870
vn -0.1158 -0.9892 -0.0898
vn 0.0425 -0.9986 -0.0309
vn 0.0372 -0.9877 0.1521
vn 0.0479 -0.9887 -0.1423
vn -0.0560 -0.9984 0.0000
vn 0.0461 -0.9989 0.0000
vn -0.1205 -0.9887 0.0896
vn -0.0173 -0.9984 -0.0533
vn 0.1567 -0.9876 0.0125
s off
f 1/1/1 14/2/1 13/3/1
f 2/4/2 14/5/2 16/6/2
f 1/7/3 13/8/3 18/9/3
f 1/10/4 18/11/4 20/12/4
f 1/13/5 20/14/5 17/15/5
f 2/4/6 16/6/6 23/16/6
f 3/17/7 15/18/7 25/19/7
f 4/20/8 19/21/8 27/22/8
f 5/23/9 21/24/9 29/25/9
f 6/26/10 22/27/10 31/28/10
f 2/4/11 23/16/11 26/29/11
f 3/17/12 25/19/12 28/30/12
f 4/20/13 27/22/13 30/31/13
f 5/23/14 29/25/14 32/32/14
f 6/26/15 31/28/15 24/33/15
f 7/34/16 33/35/16 38/36/16
f 8/37/17 34/38/17 40/39/17
f 9/40/18 35/41/18 41/42/18
f 10/43/19 36/44/19 42/45/19
f 11/46/20 37/47/20 39/48/20
f 39/48/21 42/49/21 12/50/21
f 39/48/22 37/47/22 42/49/22
f 37/47/23 10/43/23 42/49/23
f 42/45/24 41/51/24 12/52/24
f 42/45/25 36/44/25 41/51/25
f 36/44/26 9/40/26 41/51/26
f 41/42/27 40/53/27 12/54/27
f 41/42/28 35/41/28 40/53/28
f 35/41/29 8/55/29 40/53/29
f 40/39/30 38/56/30 12/57/30
f 40/39/31 34/38/31 38/56/31
f 34/38/32 7/34/32 38/56/32
f 38/36/33 39/58/33 12/59/33
f 38/36/34 33/35/34 39/58/34
f 33/35/35 11/46/35 39/58/35
f 24/33/36 37/47/36 11/46/36
f 24/33/37 31/28/37 37/47/37
f 31/28/38 10/43/38 37/47/38
f 32/32/39 36/44/39 10/43/39
f 32/32/40 29/25/40 36/44/40
f 29/25/41 9/40/41 36/44/41
f 30/31/42 35/41/42 9/40/42
f 30/31/43 27/22/43 35/41/43
f 27/22/44 8/55/44 35/41/44
f 28/30/45 34/38/45 8/37/45
f 28/30/46 25/19/46 34/38/46
f 25/19/47 7/34/47 34/38/47
f 26/29/48 33/35/48 7/34/48
f 26/29/49 23/16/49 33/35/49
f 23/16/50 11/46/50 33/35/50
f 31/28/51 32/32/51 10/43/51
f 31/28/52 22/27/52 32/32/52
f 22/27/53 5/23/53 32/32/53
f 29/25/54 30/31/54 9/40/54
f 29/25/55 21/24/55 30/31/55
f 21/24/56 4/20/56 30/31/56
f 27/22/57 28/60/57 8/55/57
f 27/22/58 19/21/58 28/60/58
f 19/21/59 3/61/59 28/60/59
f 25/19/60 26/29/60 7/34/60
f 25/19/61 15/18/61 26/29/61
f 15/18/62 2/4/62 26/29/62
f 23/16/63 24/33/63 11/46/63
f 23/16/64 16/6/64 24/33/64
f 16/6/65 6/26/65 24/33/65
f 17/15/66 22/27/66 6/26/66
f 17/15/67 20/14/67 22/27/67
f 20/14/68 5/23/68 22/27/68
f 20/12/69 21/24/69 5/23/69
f 20/12/70 18/11/70 21/24/70
f 18/11/71 4/20/71 21/24/71
f 18/9/72 19/21/72 4/20/72
f 18/9/73 13/8/73 19/21/73
f 13/8/74 3/61/74 19/21/74
f 16/6/75 17/62/75 6/26/75
f 16/6/76 14/5/76 17/62/76
f 14/5/77 1/63/77 17/62/77
f 13/3/78 15/18/78 3/17/78
f 13/3/79 14/2/79 15/18/79
f 14/2/80 2/4/80 15/18/80
