# Blender v3.0.0 OBJ File: 'brain.blend'
# www.blender.org
o Icosphere
v 0.016030 -0.054809 0.011684
v 0.587417 0.020156 0.426778
v -0.224369 0.020155 0.690548
v -0.726086 0.020160 0.000000
v -0.224369 0.020155 -0.690548
v 0.587417 0.020156 -0.426778
v 0.224369 0.426767 0.570279
v -0.492260 0.447220 0.483393
v -0.459938 0.447220 -0.506235
v 0.078213 0.447220 -0.648220
v 0.643799 0.447216 0.140641
v 0.000000 0.793822 -0.020002
v -0.115850 -0.032664 0.417575
v 0.361302 -0.032664 0.262536
v 0.213394 -0.058362 0.656747
v 0.690547 -0.058361 0.000000
v 0.361302 -0.032664 -0.239168
v -0.410752 -0.032661 0.011684
v -0.558665 -0.058361 0.405892
v -0.115850 -0.032664 -0.394207
v -0.558665 -0.058361 -0.405892
v 0.213394 -0.058362 -0.656747
v 0.772059 0.000000 0.250853
v 0.772059 0.000000 -0.250853
v 0.000000 0.000000 0.811790
v 0.477158 0.000000 0.656751
v -0.772059 0.000000 0.250853
v -0.477158 0.000000 0.656751
v -0.477158 0.000000 -0.656751
v -0.772059 0.000000 -0.250853
v 0.477158 0.000000 -0.656751
v 0.000000 0.000000 -0.811790
v 0.430580 0.525736 0.491995
v 0.009876 0.494136 0.618862
v -0.690547 0.525736 0.000000
v -0.213394 0.502909 -0.457592
v 0.558665 0.525736 -0.405892
v 0.131880 0.713402 0.290300
v 0.329583 0.850652 0.048276
v -0.345273 0.850654 0.250852
v -0.238500 0.850654 -0.290901
v 0.131880 0.850654 -0.405891
vt 0.181819 0.000000
vt 0.227273 0.078731
vt 0.136365 0.078731
vt 0.272728 0.157461
vt 0.318182 0.078731
vt 0.363637 0.157461
vt 0.909091 0.000000
vt 0.954545 0.078731
vt 0.863636 0.078731
vt 0.727273 0.000000
vt 0.772727 0.078731
vt 0.681818 0.078731
vt 0.545455 0.000000
vt 0.590909 0.078731
vt 0.500000 0.078731
vt 0.318182 0.236191
vt 0.090910 0.157461
vt 0.181819 0.157461
vt 0.136365 0.236191
vt 0.818182 0.157461
vt 0.909091 0.157461
vt 0.863636 0.236191
vt 0.636364 0.157461
vt 0.727273 0.157461
vt 0.681818 0.236191
vt 0.454546 0.157461
vt 0.545455 0.157461
vt 0.500000 0.236191
vt 0.227273 0.236191
vt 0.045455 0.236191
vt 0.772727 0.236191
vt 0.590909 0.236191
vt 0.409092 0.236191
vt 0.181819 0.314921
vt 0.272728 0.314921
vt 0.227273 0.393651
vt 0.000000 0.314921
vt 0.090910 0.314921
vt 0.045455 0.393651
vt 0.727273 0.314921
vt 0.818182 0.314921
vt 0.772727 0.393651
vt 0.545455 0.314921
vt 0.636364 0.314921
vt 0.590909 0.393651
vt 0.363637 0.314921
vt 0.454546 0.314921
vt 0.409092 0.393651
vt 0.500000 0.393651
vt 0.454546 0.472382
vt 0.681818 0.393651
vt 0.636364 0.472382
vt 0.863636 0.393651
vt 0.818182 0.472382
vt 0.909091 0.314921
vt 0.136365 0.393651
vt 0.090910 0.472382
vt 0.318182 0.393651
vt 0.272728 0.472382
vt 0.954545 0.236191
vt 1.000000 0.157461
vt 0.409092 0.078731
vt 0.363637 0.000000
vn 0.0198 -0.9979 0.0609
vn 0.0830 -0.9763 0.1997
vn -0.0518 -0.9979 0.0376
vn -0.0518 -0.9979 -0.0376
vn 0.0198 -0.9979 -0.0609
vn 0.0839 -0.9762 0.1999
vn -0.1642 -0.9762 0.1415
vn -0.1853 -0.9762 -0.1124
vn 0.0496 -0.9762 -0.2110
vn 0.2160 -0.9762 -0.0180
vn -0.3248 -0.9158 -0.2360
vn 0.1241 -0.9158 -0.3819
vn 0.4016 -0.9158 0.0000
vn 0.1241 -0.9158 0.3819
vn -0.3248 -0.9158 0.2360
vn -0.0558 0.6884 0.7232
vn -0.2649 0.5522 0.7905
vn -0.6912 0.5969 -0.4074
vn -0.4001 0.5104 -0.7612
vn 0.7924 0.6089 -0.0359
vn -0.1856 0.9793 0.0808
vn 0.5857 0.7694 -0.2550
vn 0.3425 0.4499 -0.8248
vn 0.0504 0.9854 0.1624
vn -0.2718 0.4000 -0.8753
vn 0.0785 0.4355 -0.8967
vn 0.1910 0.9809 0.0376
vn -0.6306 0.7661 -0.1243
vn -0.7653 0.5073 0.3963
vn 0.2635 0.9551 0.1355
vn 0.1775 0.7869 0.5910
vn 0.3600 0.7088 0.6067
vn -0.2269 0.9150 0.3336
vn 0.1287 0.8138 0.5667
vn 0.7195 0.6282 0.2962
vn 0.9318 0.3503 -0.0948
vn 0.7995 0.1532 -0.5808
vn 0.3753 0.3511 -0.8578
vn -0.4560 0.3750 -0.8071
vn -0.2721 0.4743 -0.8373
vn 0.1153 0.3129 -0.9428
vn -0.8363 0.3363 -0.4331
vn -0.9882 0.1532 0.0000
vn -0.8552 0.3252 0.4036
vn -0.2744 0.3395 0.8997
vn -0.2891 0.3532 0.8898
vn 0.3082 0.3406 0.8882
vn 0.2042 0.3092 0.9288
vn 0.7838 0.2479 0.5694
vn 0.8346 0.3452 0.4293
vn 0.2965 0.2819 -0.9125
vn 0.1799 -0.8131 -0.5537
vn -0.1642 -0.9762 -0.1415
vn -0.7886 0.2232 -0.5730
vn -0.4710 -0.8131 -0.3422
vn -0.1853 -0.9762 0.1124
vn -0.7932 0.1966 0.5763
vn -0.4710 -0.8131 0.3422
vn 0.0496 -0.9762 0.2110
vn 0.2893 0.3517 0.8903
vn 0.1799 -0.8131 0.5537
vn 0.2160 -0.9762 0.0180
vn 0.9612 0.2757 0.0000
vn 0.5821 -0.8131 0.0000
vn 0.0839 -0.9762 -0.1999
vn 0.2148 -0.9765 -0.0160
vn -0.0225 -0.9973 0.0694
vn -0.1669 -0.9794 -0.1134
vn 0.0620 -0.9784 -0.1971
vn 0.0568 -0.9975 0.0413
vn -0.1683 -0.9784 0.1198
vn -0.1595 -0.9794 -0.1237
vn 0.0590 -0.9973 -0.0429
vn 0.0511 -0.9765 0.2093
vn 0.0660 -0.9784 -0.1959
vn -0.0778 -0.9970 0.0000
vn 0.0640 -0.9979 0.0000
vn -0.1660 -0.9784 0.1233
vn -0.0240 -0.9970 -0.0740
vn 0.2156 -0.9763 0.0172
s off
f 1/1/1 14/2/1 13/3/1
f 2/4/2 14/5/2 16/6/2
f 1/7/3 13/8/3 18/9/3
f 1/10/4 18/11/4 20/12/4
f 1/13/5 20/14/5 17/15/5
f 2/4/6 16/6/6 23/16/6
f 3/17/7 15/18/7 25/19/7
f 4/20/8 19/21/8 27/22/8
f 5/23/9 21/24/9 29/25/9
f 6/26/10 22/27/10 31/28/10
f 2/4/11 23/16/11 26/29/11
f 3/17/12 25/19/12 28/30/12
f 4/20/13 27/22/13 30/31/13
f 5/23/14 29/25/14 32/32/14
f 6/26/15 31/28/15 24/33/15
f 7/34/16 33/35/16 38/36/16
f 8/37/17 34/38/17 40/39/17
f 9/40/18 35/41/18 41/42/18
f 10/43/19 36/44/19 42/45/19
f 11/46/20 37/47/20 39/48/20
f 39/48/21 42/49/21 12/50/21
f 39/48/22 37/47/22 42/49/22
f 37/47/23 10/43/23 42/49/23
f 42/45/24 41/51/24 12/52/24
f 42/45/25 36/44/25 41/51/25
f 36/44/26 9/40/26 41/51/26
f 41/42/27 40/53/27 12/54/27
f 41/42/28 35/41/28 40/53/28
f 35/41/29 8/55/29 40/53/29
f 40/39/30 38/56/30 12/57/30
f 40/39/31 34/38/31 38/56/31
f 34/38/32 7/34/32 38/56/32
f 38/36/33 39/58/33 12/59/33
f 38/36/34 33/35/34 39/58/34
f 33/35/35 11/46/35 39/58/35
f 24/33/36 37/47/36 11/46/36
f 24/33/37 31/28/37 37/47/37
f 31/28/38 10/43/38 37/47/38
f 32/32/39 36/44/39 10/43/39
f 32/32/40 29/25/40 36/44/40
f 29/25/41 9/40/41 36/44/41
f 30/31/42 35/41/42 9/40/42
f 30/31/43 27/22/43 35/41/43
f 27/22/44 8/55/44 35/41/44
f 28/30/45 34/38/45 8/37/45
f 28/30/46 25/19/46 34/38/46
f 25/19/47 7/34/47 34/38/47
f 26/29/48 33/35/48 7/34/48
f 26/29/49 23/16/49 33/35/49
f 23/16/50 11/46/50 33/35/50
f 31/28/51 32/32/51 10/43/51
f 31/28/52 22/27/52 32/32/52
f 22/27/53 5/23/53 32/32/53
f 29/25/54 30/31/54 9/40/54
f 29/25/55 21/24/55 30/31/55
f 21/24/56 4/20/56 30/31/56
f 27/22/57 28/60/57 8/55/57
f 27/22/58 19/21/58 28/60/58
f 19/21/59 3/61/59 28/60/59
f 25/19/60 26/29/60 7/34/60
f 25/19/61 15/18/61 26/29/61
f 15/18/62 2/4/62 26/29/62
f 23/16/63 24/33/63 11/46/63
f 23/16/64 16/6/64 24/33/64
f 16/6/65 6/26/65 24/33/65
f 17/15/66 22/27/66 6/26/66
f 17/15/67 20/14/67 22/27/67
f 20/14/68 5/23/68 22/27/68
f 20/12/69 21/24/69 5/23/69
f 20/12/70 18/11/70 21/24/70
f 18/11/71 4/20/71 21/24/71
f 18/9/72 19/21/72 4/20/72
f 18/9/73 13/8/73 19/21/73
f 13/8/74 3/61/74 19/21/74
f 16/6/75 17/62/75 6/26/75
f 16/6/76 14/5/76 17/62/76
f 14/5/77 1/63/77 17/62/77
f 13/3/78 15/18/78 3/17/78
f 13/3/79 14/2/79 15/18/79
f 14/2/80 2/4/80 15/18/80
