#
#
#

mtllib shroombaMesh-0.mtl


#
#  Mesh
#
g  Mesh

v -0.366882 -0.460970 0.186657
v -0.355887 -0.460249 0.505538
v -0.356889 -0.462838 0.186657
v -0.348246 -0.468189 0.186657
v -0.346376 -0.466137 0.505538
v -0.342120 -0.476302 0.186657
v -0.339635 -0.475064 0.505538
v -0.339338 -0.486079 0.186657
v -0.336574 -0.485823 0.505538
v -0.340276 -0.496202 0.186657
v -0.337606 -0.496961 0.505538
v -0.344807 -0.505302 0.186657
v -0.342592 -0.506975 0.505538
v -0.352320 -0.512150 0.186657
v -0.361289 -0.518552 0.505538
v -0.361799 -0.515823 0.186657
v -0.371965 -0.515823 0.186657
v -0.372475 -0.518552 0.505538
v -0.381444 -0.512150 0.186657
v -0.382906 -0.514511 0.505538
v -0.388957 -0.505302 0.186657
v -0.391172 -0.506975 0.505538
v -0.393488 -0.496202 0.186657
v -0.396158 -0.496961 0.505538
v -0.394426 -0.486079 0.186657
v -0.397191 -0.485823 0.505538
v -0.391644 -0.476302 0.186657
v -0.387388 -0.466137 0.505538
v -0.385518 -0.468189 0.186657
v -0.279837 -0.393147 0.514831
v -0.251222 -0.431039 0.514831
v -0.376875 -0.462838 0.186657
v -0.366882 -0.458193 0.505538
v -0.252711 -0.478052 0.555535
v -0.297947 -0.454306 0.596238
v -0.290202 -0.481526 0.596238
v -0.298864 -0.598485 0.514831
v -0.343141 -0.615638 0.514831
v -0.320208 -0.368150 0.514831
v -0.491156 -0.523991 0.514831
v -0.495537 -0.476710 0.514831
v -0.263773 -0.566496 0.514831
v -0.469991 -0.566496 0.514831
v -0.377878 -0.460249 0.505538
v -0.453928 -0.393147 0.514831
v -0.413557 -0.368150 0.514831
v -0.238227 -0.476710 0.514831
v -0.390624 -0.615638 0.514831
v -0.394129 -0.475064 0.505538
v -0.482543 -0.431039 0.514831
v -0.350859 -0.514511 0.505538
v -0.366882 -0.359425 0.514831
v -0.242608 -0.523991 0.514831
v -0.434900 -0.598485 0.514831
v -0.381032 -0.564329 0.596238
v -0.385767 -0.519131 0.616931
v -0.407422 -0.554105 0.596238
v -0.458383 -0.557730 0.555535
v -0.440951 -0.509706 0.596238
v -0.477165 -0.520010 0.555535
v -0.292814 -0.509706 0.596238
v -0.256599 -0.520010 0.555535
v -0.481053 -0.478052 0.555535
v -0.443562 -0.481526 0.596238
v -0.305428 -0.535039 0.596238
v -0.275382 -0.557730 0.555535
v -0.435817 -0.454306 0.596238
v -0.469522 -0.437523 0.555535
v -0.326343 -0.554105 0.596238
v -0.306521 -0.586118 0.555535
v -0.418762 -0.431722 0.596238
v -0.444128 -0.403897 0.555535
v -0.345813 -0.601339 0.555535
v -0.352732 -0.564329 0.596238
v -0.325462 -0.381714 0.555535
v -0.366882 -0.411623 0.596238
v -0.339064 -0.416824 0.596238
v -0.408302 -0.381714 0.555535
v -0.394701 -0.416824 0.596238
v -0.387951 -0.601339 0.555535
v -0.315002 -0.431722 0.596238
v -0.289636 -0.403897 0.555535
v -0.366882 -0.373972 0.555535
v -0.427243 -0.586118 0.555535
v -0.264243 -0.437523 0.555535
v -0.428336 -0.535039 0.596238
v -0.366882 -0.452759 0.616931
v -0.373474 -0.523894 0.616931
v -0.332379 -0.498449 0.616931
v -0.342715 -0.462121 0.616931
v -0.334770 -0.472642 0.616931
v -0.395509 -0.510250 0.616931
v -0.331162 -0.485322 0.616931
v -0.401386 -0.498449 0.616931
v -0.402602 -0.485322 0.616931
v -0.338255 -0.510250 0.616931
v -0.398994 -0.472642 0.616931
v -0.347998 -0.519131 0.616931
v -0.391050 -0.462121 0.616931
v -0.360291 -0.523894 0.616931
v -0.353923 -0.455181 0.616931
v -0.379841 -0.455181 0.616931
v 0.000000 1.000000 0.192712
v 0.361242 0.932472 -0.192712
v 0.000000 1.000000 -0.192712
v 0.361242 0.932472 0.192712
v 0.673696 0.739009 -0.192712
v 0.673696 0.739009 0.192712
v 0.895163 0.445738 -0.192712
v 0.895163 0.445738 0.192712
v 0.995734 0.092268 -0.192712
v 0.995734 0.092268 0.192712
v 0.961826 -0.273663 -0.192712
v 0.961826 -0.273663 0.192712
v 0.798017 -0.602635 -0.192712
v 0.798017 -0.602635 0.192712
v 0.526432 -0.850217 -0.192712
v 0.526432 -0.850217 0.192712
v 0.183750 -0.982973 -0.192712
v 0.183750 -0.982973 0.192712
v -0.183749 -0.982973 -0.192712
v -0.183749 -0.982973 0.192712
v -0.526432 -0.850217 -0.192712
v -0.526432 -0.850217 0.192712
v -0.798017 -0.602635 -0.192712
v -0.798017 -0.602635 0.192712
v -0.961826 -0.273663 -0.192712
v -0.961826 -0.273663 0.192712
v -0.995734 0.092269 -0.192712
v -0.995734 0.092269 0.192712
v -0.895163 0.445739 -0.192712
v -0.895163 0.445739 0.192712
v -0.673695 0.739009 -0.192712
v -0.673695 0.739009 0.192712
v -0.361241 0.932473 -0.192712
v -0.361241 0.932473 0.192712
vn 0.183708 0.982943 -0.008600
vn 0.526397 0.850195 -0.008600
vn 0.797998 0.602599 -0.008600
vn 0.961778 0.273694 -0.008600
vn 0.995694 -0.092299 -0.008600
vn 0.895133 -0.445716 -0.008600
vn 0.673678 -0.738975 -0.008600
vn 0.361216 -0.932442 -0.008600
vn 0.000000 -0.999963 -0.008600
vn -0.361216 -0.932442 -0.008600
vn -0.673678 -0.738975 -0.008600
vn -0.895133 -0.445716 -0.008600
vn -0.995694 -0.092299 -0.008600
vn -0.961805 0.273601 -0.008600
vn -0.797998 0.602599 -0.008600
vn 0.075997 0.057397 -0.995455
vn -0.526397 0.850195 -0.008600
vn -0.183708 0.982943 -0.008600
vn 0.711633 0.202509 0.672732
vn 0.034398 -0.088796 -0.995456
vn 0.017499 0.093695 -0.995447
vn -0.094895 -0.008799 -0.995448
vn 0.085296 -0.042498 -0.995449
vn -0.064197 -0.070397 -0.995451
vn -0.050197 0.080996 -0.995450
vn 0.091596 0.026099 -0.995454
vn 0.000000 -0.095295 -0.995449
vn -0.091596 0.026099 -0.995454
vn 0.050202 0.081004 -0.995449
vn 0.064197 -0.070397 -0.995451
vn -0.085296 -0.042498 -0.995449
vn -0.017499 0.093695 -0.995447
vn 0.094895 -0.008799 -0.995448
vn -0.034398 -0.088796 -0.995456
vn -0.075997 0.057397 -0.995455
vn -0.164600 -0.424799 0.890198
vn -0.662322 -0.329811 0.672722
vn 0.736731 -0.068303 0.672728
vn -0.736731 -0.068303 0.672728
vn 0.662322 -0.329811 0.672722
vn -0.711633 0.202509 0.672732
vn 0.498420 -0.546822 0.672728
vn -0.590422 0.445917 0.672725
vn 0.267308 -0.689922 0.672721
vn 0.136001 0.727305 0.672705
vn -0.389500 0.629099 0.672699
vn 0.000000 -0.739908 0.672708
vn 0.389500 0.629099 0.672699
vn -0.136001 0.727305 0.672705
vn -0.267308 -0.689922 0.672721
vn 0.590422 0.445917 0.672725
vn -0.498420 -0.546822 0.672728
vn -0.635631 -0.697235 0.331416
vn 0.752904 0.568603 0.331402
vn -0.340797 -0.879792 0.331397
vn -0.173403 0.927417 0.331406
vn 0.496685 0.802175 0.331390
vn 0.000000 -0.943491 0.331397
vn -0.496685 0.802175 0.331390
vn 0.173403 0.927417 0.331406
vn 0.340797 -0.879792 0.331397
vn -0.752904 0.568603 0.331402
vn 0.635631 -0.697235 0.331416
vn -0.907478 0.258194 0.331392
vn 0.844602 -0.420501 0.331401
vn -0.939466 -0.087097 0.331388
vn 0.939466 -0.087097 0.331388
vn -0.844602 -0.420501 0.331401
vn 0.907478 0.258194 0.331392
vn 0.000000 -0.000000 1.000000
vn 0.363511 0.274508 0.890227
vn -0.306898 -0.336698 0.890195
vn 0.438194 0.124698 0.890189
vn -0.407799 -0.203099 0.890197
vn 0.453606 -0.042001 0.890212
vn -0.453606 -0.042001 0.890212
vn 0.407799 -0.203099 0.890197
vn -0.438194 0.124698 0.890189
vn 0.306898 -0.336698 0.890195
vn -0.363511 0.274508 0.890227
vn 0.164600 -0.424799 0.890198
vn 0.083701 0.447803 0.890206
vn -0.239805 0.387307 0.890217
vn 0.000000 -0.455594 0.890188
vn 0.239805 0.387307 0.890217
vn -0.083701 0.447803 0.890206
vn 0.183697 0.982983 0.000000
vn 0.526417 0.850227 0.000000
vn 0.798028 0.602621 0.000000
vn 0.961814 0.273704 0.000000
vn 0.995731 -0.092303 -0.000000
vn 0.895186 -0.445693 -0.000000
vn 0.673702 -0.739003 -0.000000
vn 0.361196 -0.932490 -0.000000
vn 0.000000 -1.000000 -0.000000
vn -0.361196 -0.932490 -0.000000
vn -0.673702 -0.739003 -0.000000
vn -0.895186 -0.445693 -0.000000
vn -0.995731 -0.092303 -0.000000
vn -0.961814 0.273704 0.000000
vn -0.798028 0.602621 0.000000
vn -0.526417 0.850227 0.000000
vn -0.183697 0.982983 0.000000
vn 0.000000 0.000000 -1.000000
vn -0.961778 0.273694 -0.008600
vn -0.050202 0.081004 -0.995449
vn 0.050197 0.080996 -0.995450
vn 0.498496 -0.546795 0.672694
vn -0.135903 0.727315 0.672714
vt 0.628928 0.712857
vt 0.593342 0.764314
vt 0.593342 0.712857
vt 0.557754 0.712857
vt 0.557754 0.764314
vt 0.522168 0.712857
vt 0.522168 0.764314
vt 0.486581 0.712857
vt 0.486581 0.764314
vt 0.450994 0.712857
vt 0.450994 0.764314
vt 0.415407 0.712857
vt 0.415407 0.764314
vt 0.379820 0.712857
vt 0.344233 0.764314
vt 0.344233 0.712857
vt 0.308646 0.712857
vt 0.308646 0.764314
vt 0.273059 0.712857
vt 0.273059 0.764314
vt 0.237472 0.712857
vt 0.237472 0.764314
vt 0.201885 0.712857
vt 0.201885 0.764314
vt 0.166298 0.712857
vt 0.166298 0.764314
vt 0.130711 0.712857
vt 0.095125 0.764314
vt 0.095125 0.712857
vt 0.557754 0.814981
vt 0.522168 0.814981
vt 0.059538 0.712857
vt 0.023951 0.764314
vt 0.023951 0.712857
vt 0.486581 0.871800
vt 0.522168 0.921366
vt 0.486581 0.921366
vt 0.379820 0.814981
vt 0.344233 0.814981
vt 0.628928 0.764314
vt 0.593342 0.814981
vt 0.201885 0.814981
vt 0.166298 0.814981
vt 0.415407 0.814981
vt 0.237472 0.814981
vt 0.059538 0.764314
vt 0.095125 0.814981
vt 0.059538 0.814981
vt 0.486581 0.814981
vt 0.308646 0.814981
vt 0.130711 0.764314
vt 0.130711 0.814981
vt 0.379820 0.764314
vt 0.023951 0.814981
vt 0.450994 0.814981
vt 0.273059 0.814981
vt 0.308646 0.921366
vt 0.273059 0.973356
vt 0.273059 0.921366
vt 0.237472 0.871800
vt 0.201885 0.921366
vt 0.201885 0.871800
vt 0.450994 0.921366
vt 0.450994 0.871800
vt 0.166298 0.871800
vt 0.166298 0.921366
vt 0.415407 0.921366
vt 0.415407 0.871800
vt 0.130711 0.921366
vt 0.130711 0.871800
vt 0.379820 0.921366
vt 0.379820 0.871800
vt 0.095125 0.921366
vt 0.095125 0.871800
vt 0.344233 0.871800
vt 0.344233 0.921366
vt 0.593342 0.871800
vt 0.628928 0.921366
vt 0.593342 0.921366
vt 0.059538 0.871800
vt 0.059538 0.921366
vt 0.308646 0.871800
vt 0.557754 0.921366
vt 0.557754 0.871800
vt 0.023951 0.921366
vt 0.023951 0.871800
vt 0.273059 0.871800
vt 0.522168 0.871800
vt 0.237472 0.921366
vt 0.628928 0.814981
vt 0.823177 0.970080
vt 0.796498 0.682163
vt 0.962829 0.785151
vt 0.557754 0.973356
vt 0.522168 0.973356
vt 0.237472 0.973356
vt 0.486581 0.973356
vt 0.201885 0.973356
vt 0.450994 0.973356
vt 0.166298 0.973356
vt 0.415407 0.973356
vt 0.130711 0.973356
vt 0.379820 0.973356
vt 0.095125 0.973356
vt 0.344233 0.973356
vt 0.593342 0.973356
vt 0.059538 0.973356
vt 0.308646 0.973356
vt 0.023951 0.973356
vt 0.920994 0.932186
vt 0.875628 0.960275
vt 0.770727 0.960275
vt 0.725360 0.932186
vt 0.693204 0.889604
vt 0.678602 0.838283
vt 0.683525 0.785151
vt 0.707310 0.737386
vt 0.746742 0.701439
vt 0.849857 0.682163
vt 0.899612 0.701439
vt 0.939045 0.737386
vt 0.967752 0.838283
vt 0.953150 0.889604
vt 0.030459 0.515042
vt 0.059072 0.671819
vt 0.030459 0.671819
vt 0.059072 0.515042
vt 0.087685 0.671819
vt 0.087685 0.515042
vt 0.116299 0.671819
vt 0.116299 0.515042
vt 0.144912 0.671819
vt 0.144912 0.515042
vt 0.173525 0.671819
vt 0.173525 0.515042
vt 0.202138 0.671819
vt 0.202138 0.515042
vt 0.230751 0.671819
vt 0.230751 0.515042
vt 0.259365 0.671819
vt 0.259365 0.515042
vt 0.287978 0.671819
vt 0.287978 0.515042
vt 0.316591 0.671819
vt 0.316591 0.515042
vt 0.345205 0.671819
vt 0.345205 0.515042
vt 0.373818 0.671819
vt 0.373818 0.515042
vt 0.402431 0.671819
vt 0.402431 0.515042
vt 0.431044 0.671819
vt 0.431044 0.515042
vt 0.459657 0.671819
vt 0.376344 0.045948
vt 0.480838 0.184321
vt 0.250000 0.490000
vt 0.459657 0.515042
vt 0.488271 0.671819
vt 0.488271 0.515042
vt 0.516884 0.671819
vt 0.836698 0.473793
vt 0.980838 0.184321
vt 0.705900 0.014086
vt 0.411687 0.427362
vt 0.336698 0.473793
vt 0.163302 0.473793
vt 0.088313 0.427362
vt 0.035161 0.356977
vt 0.011024 0.272144
vt 0.019162 0.184321
vt 0.058476 0.105368
vt 0.123656 0.045948
vt 0.205900 0.014086
vt 0.294100 0.014086
vt 0.441524 0.105368
vt 0.488976 0.272144
vt 0.464839 0.356977
vt 0.663302 0.473793
vt 0.750000 0.490000
vt 0.588313 0.427362
vt 0.911687 0.427362
vt 0.964839 0.356977
vt 0.988976 0.272144
vt 0.941524 0.105368
vt 0.876344 0.045948
vt 0.794100 0.014086
vt 0.623656 0.045948
vt 0.558476 0.105368
vt 0.519162 0.184321
vt 0.511024 0.272144
vt 0.535161 0.356977
vt 0.628928 0.871800
vt 0.628928 0.973356
vt 0.516884 0.515042
f 1/1/1 2/2/1 3/3/1
f 2/2/2 4/4/2 3/3/2
f 5/5/3 6/6/3 4/4/3
f 7/7/4 8/8/4 6/6/4
f 9/9/5 10/10/5 8/8/5
f 11/11/6 12/12/6 10/10/6
f 13/13/7 14/14/7 12/12/7
f 14/14/8 15/15/8 16/16/8
f 15/15/9 17/17/9 16/16/9
f 18/18/10 19/19/10 17/17/10
f 20/20/11 21/21/11 19/19/11
f 22/22/12 23/23/12 21/21/12
f 24/24/13 25/25/13 23/23/13
f 26/26/14 27/27/14 25/25/14
f 27/27/15 28/28/15 29/29/15
f 7/7/16 30/30/16 31/31/16
f 28/28/17 32/32/17 29/29/17
f 32/32/18 33/33/18 1/34/18
f 34/35/19 35/36/19 36/37/19
f 15/15/20 37/38/20 38/39/20
f 33/40/21 39/41/21 2/2/21
f 26/26/22 40/42/22 41/43/22
f 11/11/23 42/44/23 13/13/23
f 20/20/24 43/45/24 22/22/24
f 44/46/25 45/47/25 46/48/25
f 7/7/26 47/49/26 9/9/26
f 18/18/27 38/39/27 48/50/27
f 49/51/28 41/43/28 50/52/28
f 2/2/29 30/30/29 5/5/29
f 51/53/30 42/44/30 37/38/30
f 22/22/31 40/42/31 24/24/31
f 44/46/32 52/54/32 33/33/32
f 11/11/33 47/49/33 53/55/33
f 20/20/34 48/50/34 54/56/34
f 49/51/35 45/47/35 28/28/35
f 55/57/36 56/58/36 57/59/36
f 58/60/37 59/61/37 60/62/37
f 34/35/38 61/63/38 62/64/38
f 63/65/39 59/61/39 64/66/39
f 62/64/40 65/67/40 66/68/40
f 63/65/41 67/69/41 68/70/41
f 66/68/42 69/71/42 70/72/42
f 68/70/43 71/73/43 72/74/43
f 73/75/44 69/71/44 74/76/44
f 75/77/45 76/78/45 77/79/45
f 78/80/46 71/73/46 79/81/46
f 73/75/47 55/57/47 80/82/47
f 75/77/48 81/83/48 82/84/48
f 78/80/49 76/85/49 83/86/49
f 80/82/50 57/59/50 84/87/50
f 85/88/51 81/83/51 35/36/51
f 84/87/52 86/89/52 58/60/52
f 54/56/53 58/60/53 43/45/53
f 30/30/54 85/88/54 31/31/54
f 54/56/55 80/82/55 84/87/55
f 52/54/56 78/80/56 83/86/56
f 39/41/57 82/84/57 30/30/57
f 48/50/58 73/75/58 80/82/58
f 46/48/59 72/74/59 78/80/59
f 52/90/60 75/77/60 39/41/60
f 37/38/61 73/75/61 38/39/61
f 50/52/62 72/74/62 45/47/62
f 37/38/63 66/68/63 70/72/63
f 41/43/64 68/70/64 50/52/64
f 53/55/65 66/68/65 42/44/65
f 41/43/66 60/62/66 63/65/66
f 47/49/67 62/64/67 53/55/67
f 43/45/68 60/62/68 40/42/68
f 31/31/69 34/35/69 47/49/69
f 87/91/70 88/92/70 89/93/70
f 35/36/71 90/94/71 91/95/71
f 57/59/72 92/96/72 86/89/72
f 36/37/73 91/95/73 93/97/73
f 86/89/74 94/98/74 59/61/74
f 61/63/75 93/97/75 89/99/75
f 59/61/76 95/100/76 64/66/76
f 65/67/77 89/99/77 96/101/77
f 64/66/78 97/102/78 67/69/78
f 69/71/79 96/101/79 98/103/79
f 67/69/80 99/104/80 71/73/80
f 69/71/81 100/105/81 74/76/81
f 76/78/82 101/106/82 77/79/82
f 71/73/83 102/107/83 79/81/83
f 74/76/84 88/108/84 55/57/84
f 77/79/85 90/94/85 81/83/85
f 79/81/86 87/109/86 76/85/86
f 90/110/70 101/111/70 87/91/70
f 87/91/70 102/112/70 99/113/70
f 99/113/70 97/114/70 95/115/70
f 95/115/70 94/116/70 92/117/70
f 92/117/70 56/118/70 95/115/70
f 56/118/70 88/92/70 95/115/70
f 88/92/70 100/119/70 98/120/70
f 98/120/70 96/121/70 89/93/70
f 89/93/70 93/122/70 91/123/70
f 91/123/70 90/110/70 89/93/70
f 90/110/70 87/91/70 89/93/70
f 87/91/70 99/113/70 88/92/70
f 99/113/70 95/115/70 88/92/70
f 88/92/70 98/120/70 89/93/70
f 103/124/87 104/125/87 105/126/87
f 106/127/88 107/128/88 104/125/88
f 108/129/89 109/130/89 107/128/89
f 110/131/90 111/132/90 109/130/90
f 112/133/91 113/134/91 111/132/91
f 114/135/92 115/136/92 113/134/92
f 116/137/93 117/138/93 115/136/93
f 118/139/94 119/140/94 117/138/94
f 120/141/95 121/142/95 119/140/95
f 122/143/96 123/144/96 121/142/96
f 124/145/97 125/146/97 123/144/97
f 126/147/98 127/148/98 125/146/98
f 128/149/99 129/150/99 127/148/99
f 130/151/100 131/152/100 129/150/100
f 132/153/101 133/154/101 131/152/101
f 118/155/70 114/156/70 103/157/70
f 134/158/102 135/159/102 133/154/102
f 136/160/103 105/161/103 135/159/103
f 104/162/104 113/163/104 121/164/104
f 108/165/70 106/166/70 103/157/70
f 103/157/70 136/167/70 134/168/70
f 134/168/70 132/169/70 130/170/70
f 130/170/70 128/171/70 126/172/70
f 126/172/70 124/173/70 122/174/70
f 122/174/70 120/175/70 118/155/70
f 118/155/70 116/176/70 114/156/70
f 114/156/70 112/177/70 103/157/70
f 112/177/70 110/178/70 103/157/70
f 110/178/70 108/165/70 103/157/70
f 103/157/70 134/168/70 130/170/70
f 130/170/70 126/172/70 103/157/70
f 126/172/70 122/174/70 103/157/70
f 122/174/70 118/155/70 103/157/70
f 135/179/104 105/180/104 133/181/104
f 105/180/104 104/162/104 133/181/104
f 104/162/104 107/182/104 113/163/104
f 107/182/104 109/183/104 113/163/104
f 109/183/104 111/184/104 113/163/104
f 113/163/104 115/185/104 117/186/104
f 117/186/104 119/187/104 121/164/104
f 121/164/104 123/188/104 125/189/104
f 125/189/104 127/190/104 121/164/104
f 127/190/104 129/191/104 121/164/104
f 129/191/104 131/192/104 133/181/104
f 113/163/104 117/186/104 121/164/104
f 129/191/104 133/181/104 121/164/104
f 133/181/104 104/162/104 121/164/104
f 1/1/1 33/40/1 2/2/1
f 2/2/2 5/5/2 4/4/2
f 5/5/3 7/7/3 6/6/3
f 7/7/4 9/9/4 8/8/4
f 9/9/5 11/11/5 10/10/5
f 11/11/6 13/13/6 12/12/6
f 13/13/7 51/53/7 14/14/7
f 14/14/8 51/53/8 15/15/8
f 15/15/9 18/18/9 17/17/9
f 18/18/10 20/20/10 19/19/10
f 20/20/11 22/22/11 21/21/11
f 22/22/12 24/24/12 23/23/12
f 24/24/13 26/26/13 25/25/13
f 26/26/105 49/51/105 27/27/105
f 27/27/15 49/51/15 28/28/15
f 7/7/16 5/5/16 30/30/16
f 28/28/17 44/46/17 32/32/17
f 32/32/18 44/46/18 33/33/18
f 34/35/19 85/88/19 35/36/19
f 15/15/20 51/53/20 37/38/20
f 33/40/21 52/90/21 39/41/21
f 26/26/22 24/24/22 40/42/22
f 11/11/23 53/55/23 42/44/23
f 20/20/24 54/56/24 43/45/24
f 44/46/106 28/28/106 45/47/106
f 7/7/26 31/31/26 47/49/26
f 18/18/27 15/15/27 38/39/27
f 49/51/28 26/26/28 41/43/28
f 2/2/107 39/41/107 30/30/107
f 51/53/30 13/13/30 42/44/30
f 22/22/31 43/45/31 40/42/31
f 44/46/32 46/48/32 52/54/32
f 11/11/33 9/9/33 47/49/33
f 20/20/34 18/18/34 48/50/34
f 49/51/35 50/52/35 45/47/35
f 55/57/36 88/108/36 56/58/36
f 58/60/37 86/89/37 59/61/37
f 34/35/38 36/37/38 61/63/38
f 63/65/39 60/62/39 59/61/39
f 62/64/40 61/63/40 65/67/40
f 63/65/41 64/66/41 67/69/41
f 66/68/108 65/67/108 69/71/108
f 68/70/43 67/69/43 71/73/43
f 73/75/44 70/72/44 69/71/44
f 75/77/45 83/193/45 76/78/45
f 78/80/46 72/74/46 71/73/46
f 73/75/47 74/76/47 55/57/47
f 75/77/48 77/79/48 81/83/48
f 78/80/109 79/81/109 76/85/109
f 80/82/50 55/57/50 57/59/50
f 85/88/51 82/84/51 81/83/51
f 84/87/52 57/59/52 86/89/52
f 54/56/53 84/87/53 58/60/53
f 30/30/54 82/84/54 85/88/54
f 54/56/55 48/50/55 80/82/55
f 52/54/56 46/48/56 78/80/56
f 39/41/57 75/77/57 82/84/57
f 48/50/58 38/39/58 73/75/58
f 46/48/59 45/47/59 72/74/59
f 52/90/60 83/193/60 75/77/60
f 37/38/61 70/72/61 73/75/61
f 50/52/62 68/70/62 72/74/62
f 37/38/63 42/44/63 66/68/63
f 41/43/64 63/65/64 68/70/64
f 53/55/65 62/64/65 66/68/65
f 41/43/66 40/42/66 60/62/66
f 47/49/67 34/35/67 62/64/67
f 43/45/68 58/60/68 60/62/68
f 31/31/69 85/88/69 34/35/69
f 35/36/71 81/83/71 90/94/71
f 57/59/72 56/58/72 92/96/72
f 36/37/73 35/36/73 91/95/73
f 86/89/74 92/96/74 94/98/74
f 61/63/75 36/37/75 93/97/75
f 59/61/76 94/98/76 95/100/76
f 65/67/77 61/63/77 89/99/77
f 64/66/78 95/100/78 97/102/78
f 69/71/79 65/67/79 96/101/79
f 67/69/80 97/102/80 99/104/80
f 69/71/81 98/103/81 100/105/81
f 76/78/82 87/194/82 101/106/82
f 71/73/83 99/104/83 102/107/83
f 74/76/84 100/105/84 88/108/84
f 77/79/85 101/106/85 90/94/85
f 79/81/86 102/107/86 87/109/86
f 103/124/87 106/127/87 104/125/87
f 106/127/88 108/129/88 107/128/88
f 108/129/89 110/131/89 109/130/89
f 110/131/90 112/133/90 111/132/90
f 112/133/91 114/135/91 113/134/91
f 114/135/92 116/137/92 115/136/92
f 116/137/93 118/139/93 117/138/93
f 118/139/94 120/141/94 119/140/94
f 120/141/95 122/143/95 121/142/95
f 122/143/96 124/145/96 123/144/96
f 124/145/97 126/147/97 125/146/97
f 126/147/98 128/149/98 127/148/98
f 128/149/99 130/151/99 129/150/99
f 130/151/100 132/153/100 131/152/100
f 132/153/101 134/158/101 133/154/101
f 134/158/102 136/160/102 135/159/102
f 136/160/103 103/195/103 105/161/103
